<svg width="23" height="32" fill="none" xmlns="http://www.w3.org/2000/svg"><path fill-rule="evenodd" clip-rule="evenodd" d="M13.183 16.543c.347-.234.675-.533.978-.89l7.164 7.164a.816.816 0 101.154-1.154l-7.399-7.4c.782-1.513 1.258-3.51 1.258-5.7 0-.227-.005-.453-.015-.676l6.156-6.156A.816.816 0 0021.325.577l-5.246 5.246C15.417 2.438 13.563 0 11.38 0 9.19 0 7.33 2.455 6.675 5.859L1.393.577A.816.816 0 10.24 1.731l6.197 6.197c-.009.21-.013.422-.013.635 0 2.176.47 4.162 1.243 5.673L.24 21.663a.816.816 0 001.154 1.154l7.187-7.186c.309.366.643.673.997.912v10.5L4.62 30.196V32l4.957-2.253h3.606L18.141 32v-1.803l-4.958-3.155V16.543z" fill="#E3A634"/></svg>