<svg width="1600" height="3995" fill="none" xmlns="http://www.w3.org/2000/svg"><g opacity=".04" clip-path="url(#clip0_53_188)"><path d="M-28.084 1376c21.071 17.24 42.143 28.73 59.384 49.8 17.24 13.41 28.734 36.4 49.805 47.89 24.903 15.33 55.553 22.99 68.962 51.72l22.987 26.82c5.747 9.58 7.663 22.98 17.241 30.65 13.409 13.4 30.65 24.9 38.312 42.14 15.325 21.07 5.747 45.97-7.662 65.13-26.819 40.22-40.228 88.11-45.975 136 0 40.22 11.494 74.7 9.578 114.93 1.916 44.06-21.072 53.63-47.89 82.37-13.409 24.9-17.241 49.8-40.228 68.96-51.721 49.8 0 53.63-24.903 101.52-9.578 15.32-13.409 32.56-24.903 44.05-7.662 7.67-45.974 65.13-57.468 51.72-5.747-24.9 1.916-57.46-19.156-78.53m1589.95 731.73c-24.9-13.41-59.38-24.9-65.13-57.47-7.66-42.14 22.99-80.45 53.64-103.44 9.58-9.57 21.07-15.32 30.65-21.07 9.58-7.66 21.07-5.74 26.82-17.24-13.41-19.15-45.98-28.73-68.96-26.81-36.4 3.83-70.88 21.07-105.36 11.49-38.31-7.66-44.06-28.73-53.64-59.38-11.49-17.24-26.82-26.82-34.48-45.98-11.49-26.81-9.58-57.46-28.73-80.45-45.98-42.14-109.19 38.31-134.1 74.71-15.32 22.98-21.07 53.63-42.14 72.79-34.48 19.15-76.62-34.48-95.78-57.47-24.9-42.14-13.41-91.94-17.24-137.92-1.92-13.4-9.58-24.9-15.33-38.31-5.74-19.15-13.405-42.14-32.561-51.71-59.384-24.91-114.936-5.75-160.911-63.22-11.493-13.41-15.325-28.73-17.24-45.97 1.915-51.72-32.565-38.31-63.215-55.55-15.325-13.41-28.734-22.99-42.144-38.31-17.24-32.56-22.987-70.87-22.987-107.27 0-24.9 7.663-49.8 9.578-74.7 3.831-63.22 15.325-63.22 51.722-105.36 19.156-22.98 45.974-38.31 61.299-65.13 15.325-15.32 53.637-22.98 76.624-24.9 42.144 3.83 67.047 42.14 105.359 53.64 24.906 9.57 51.726 11.49 74.706-3.83 13.41-11.5 22.99-26.82 38.31-38.31 13.41-7.67 28.74-9.58 44.06-17.24l45.98-22.99c76.62-44.06 91.95-13.41 168.57-3.83 36.4 5.74 61.3-21.07 82.37-45.97 68.96-82.37 145.59-47.89 197.31-126.43m-38.31 2122.4c-67.05-38.31-34.48-145.58 38.31-149.41M1584.86 4165l-44.06-74.71c-32.57-55.55-1.92-120.67-3.83-181.97 3.83-26.82-7.67-68.96 22.98-82.37" stroke="#fff" stroke-width="2.4" stroke-miterlimit="10" stroke-linecap="round" stroke-dasharray="20.47 20.47"/><path d="M-4.283 1322.6c26.802 21.07 57.434 36.39 78.492 65.12 11.487 21.06 21.06 44.05 36.375 63.2 15.316 22.98 40.203 40.22 57.434 61.28 21.058 28.73 26.802 44.05 59.347 61.29 22.974 15.32 42.118 30.64 61.263 49.79 28.717 21.07 65.091 63.21 7.658 76.61-63.177 13.41-97.637 63.2-93.808 124.49 0 30.64 7.657 57.45 9.572 86.18 9.572 70.86-26.802 132.15-59.348 193.44-13.401 24.89-15.316 55.54-24.888 82.35-24.888 61.29-70.835 80.44-120.61 116.83m95.722-1442.141c74.664 13.406 84.236 26.813 93.808 103.42 7.658 30.643 13.401 93.841-36.374 82.351-63.177-15.32-126.354-30.64-193.36-28.73M1623-335.954c-11.49-17.236-28.72-26.812-49.78-28.727-13.4 0-26.8-1.916-40.2-11.492-40.2-22.982-80.41-53.625-130.18-47.879-44.03 3.83-86.15 28.728-126.36 45.964-19.14 5.746-30.63 19.152-44.03 28.728-19.14 9.576-36.37 24.897-55.52 34.473-24.88 3.831-49.77-3.83-74.66-1.915-45.95 1.915-89.98-11.491-132.098-22.982-55.519-15.322-105.294-67.032-164.642-40.219-15.316 7.661-24.888 22.982-38.289 34.473-17.23 15.322-40.204 9.576-61.263 21.067-13.401 7.661-24.888 22.983-40.203 30.643-42.118 11.492-36.375-44.049-32.546-68.946-1.914-34.474-24.888-76.608-65.091-57.456-22.974 13.406-42.118 36.389-63.177 51.71-26.802 26.813-63.177 36.389-99.552 36.389-19.144 0-34.46-7.661-53.604-9.576-36.375-9.576-70.835 7.66-107.209 1.915l-53.605-15.322c-17.23-3.83-44.032 1.916-24.888-22.982 30.631-57.456 3.829-151.3-76.578-122.572-28.717 7.661-47.861 30.643-57.433 59.371-28.717 44.049 34.46 72.777 72.749 76.607 36.374 9.576 53.604 1.916 28.716 45.965-13.401 19.152-24.887 40.219-42.117 57.456-19.145 22.982-42.118 44.049-57.434 68.946C9.118-157.841-2.369-115.707-8.112-75.488c-5.743 34.473-9.572 68.947-19.144 99.59M1219.05 4475l38.29-44.05c15.32-11.49 32.55-19.15 47.86-28.73 15.32-9.57 11.49-32.56 15.32-47.88 1.91-22.98-7.66-44.05-19.15-63.2-9.57-21.07-3.83-44.05-1.91-67.03 1.91-11.49 9.57-24.9 0-36.39-13.4-17.24-32.55-24.9-51.69-34.47-15.32-3.83-21.06-15.32-28.72-28.73-15.31-26.81-22.97-63.2-3.83-91.93 17.23-19.15 40.21-45.96 68.92-49.79 26.8-5.75 53.61 5.74 78.49 15.32 42.12 11.49 82.33 7.66 84.24-47.88 1.91-22.98-13.4-45.97-15.32-68.95 0-32.56-19.14-63.2-17.23-95.76 0-22.98 5.75-45.96 11.49-67.03 5.74-19.15 5.74-38.3 7.66-55.54 0-17.24 11.49-32.56 17.23-47.88 1.91-13.41-5.74-26.81-5.74-40.22-5.75-49.79 24.88-55.54 65.09-61.28 19.14-1.92 53.6-11.5 44.03-34.48-5.74-11.49-24.89-19.15-21.06-34.47 0-11.49 9.57-19.15 13.4-26.81 9.57-34.48-32.54-65.12-24.89-103.42 1.92-36.39-9.57-72.78-7.65-109.17-5.75-42.13-36.38-82.35-68.92-105.34-28.72-17.23-51.69-44.04-63.18-74.69-30.63-74.69-105.3-132.15-185.7-114.91-28.72 3.83-55.52-13.41-78.5-28.73-22.97-15.32-47.86-34.47-63.17-59.37-17.23-32.56-28.72-67.03-49.78-97.67-13.399-17.24-30.629-28.73-44.03-44.05l-24.888-44.05c-13.401-34.47 11.487-44.05 0-88.1 1.915-38.3 38.289-38.3 11.487-90.01-21.059-28.73-89.979-19.16-124.439-32.56-28.717-5.75-53.605-21.07-80.407-34.48-17.23-9.57-47.862-17.23-57.434-34.47-11.487-21.07 1.915-45.96 0-68.95 0-44.04-22.973-49.79-32.546-82.35-7.657-45.96-15.315-90.01-19.144-135.98 0-38.3 9.572-76.6 21.059-111.08 11.487-32.56 32.546-59.37 45.947-90.01 15.315-22.98 22.973-53.63 47.861-65.12 19.145-9.57 40.203 0 59.348-5.74 59.348-21.07 82.321-42.14 132.097 11.49 30.631 30.64 63.179 51.71 103.379 24.89 22.97-17.23 44.03-40.21 70.84-47.87 24.88-9.58 44.03-22.99 68.92-34.48 21.06-11.49 45.94-15.32 67-22.98 26.8-13.41 45.95-38.3 74.67-45.96 51.69-15.33 103.38-26.82 153.15-49.8 47.86-17.24 103.38-44.05 112.95-99.59 13.41-65.12-26.8-124.49-19.14-189.6 5.74-49.8 28.72-97.68 47.86-145.56" stroke="#fff" stroke-width="1.7" stroke-miterlimit="10"/><path d="M-25.511 3572.78c44.04 5.74 95.74-9.57 132.122 22.98 22.978 22.98 17.233 57.44 13.404 86.17-1.915 15.32 7.659 30.63-1.915 45.95-7.659 19.15-30.637 26.81-42.126 44.05l-38.296 45.95-44.04 36.38M7.04 1294.09c47.87 26.81 101.485 57.45 120.633 112.98 15.319 51.7 7.659 51.7 49.785 86.17 15.319 17.23 26.808 44.04 49.785 51.7 40.212 15.32 72.763 40.21 111.06 63.19 42.126 26.81 51.7 30.64 82.337 72.76 19.148 13.41 44.04 15.32 61.274 32.56 11.489 36.38-155.1 26.8-178.078 32.55-88.081 3.83-78.507 93.83-68.933 157.02 1.915 30.64-1.915 65.1-7.66 95.74-5.744 45.96-21.063 86.17-34.466 130.21-9.574 40.21-15.319 84.26-49.785 111.06-30.637 30.64-70.849 47.88-109.145 67.02-24.892 7.66-42.126 34.47-70.848 28.73m11.49-1738.699c24.892 19.149 32.55-30.638 57.444-21.063 11.488 5.744 15.318 19.148 22.977 26.808l59.359 55.531c28.723 24.893 63.189 40.212 95.741 57.446 24.893 17.233 47.871 38.297 70.848 57.446 24.893 19.148 47.871 42.127 63.189 68.935 19.148 42.127 7.659 51.701 13.404 89.998 5.744 24.894 42.126 88.088-5.745 88.088-11.488-1.92-21.063-9.58-32.551-15.32-24.893-7.662-55.53-7.662-68.934 17.23-7.659 11.49-7.659 22.98-9.574 36.38-11.489 36.39-53.615 26.81-82.337 19.15-38.296-11.49-78.507-21.06-118.718-26.81-22.978-1.91-47.87-9.57-68.934-7.66M1617.4 461.126c-3.83-19.149-3.83-36.383-11.49-53.616-7.66-26.809-22.98-45.957-34.47-68.936a99.616 99.616 0 01-17.65-47.567 99.583 99.583 0 018.08-50.091c11.49-19.148 21.06-36.382 24.89-55.531 17.24-65.105 21.07-130.21 22.98-193.4 3.83-40.213 15.32-74.68 11.49-112.978L1604-201.417c-5.75-24.893-9.58-51.702-21.07-76.595-19.15-38.297-63.19-53.616-99.57-70.85-49.78-30.638-109.14-17.234-158.93 1.915-53.61 15.319-91.91 53.616-139.78 86.169-17.23 11.489-40.21 17.234-61.27 22.978-13.41 5.745-26.81 5.745-36.38 17.234-17.24 15.319-28.73 38.297-45.96 55.531-17.23 11.489-9.57 36.383-22.98 47.872-9.57 1.915-15.32-1.915-22.975-3.83l-40.211-13.404-38.296-15.319c-13.404-5.744-26.808-3.83-38.297 1.915l-74.677 11.489c-19.149 3.83-40.211 1.915-59.36 7.66-32.551 9.574-59.359 40.212-95.74 38.297-28.723 0-51.7-15.319-76.593-22.978-57.444-17.234-114.889-42.128-158.929-82.34-17.234-17.233-42.126-28.723-68.934-28.723-15.318-7.659-45.955 3.83-49.785-19.148 0-9.575 3.83-17.234 1.915-26.808 0-7.66-7.659-19.149-15.319-22.979-36.381-19.148-67.018 9.575-78.507 44.042-5.744 15.319-17.233 32.553-15.319 49.787 3.83 38.297 70.849 19.148 72.763 61.275 5.745 17.234 17.234 34.468 13.404 53.617-9.574 30.637-51.7 15.318-70.848 36.382C185.119-34.824 177.459-9.931 169.8 9.218c-19.148 38.297-21.063 82.339-17.233 122.551 1.915 13.404 11.489 21.064 15.318 34.468l5.745 40.212c5.744 30.638 15.318 61.275 15.318 93.828 0 22.978 7.66 49.787 0 72.765C169.8 424.743 114.27 434.318 66.4 426.658c-21.063 3.83-44.04-5.744-63.189-15.319M1136.78 4490c-15.32-17.23 30.64-36.38 40.21-47.87 7.66-7.66 9.58-19.15 11.49-30.64 5.75-30.64-36.38-34.47-24.89-72.76 11.49-24.9 7.66-51.71-19.15-63.19-26.81-7.66-51.7-19.15-70.85-38.3-26.81-21.07-42.12-53.62-67.02-76.6-32.548-26.8-67.015-44.04-99.567-68.93l-30.637-19.15c-9.574-3.83-19.148-7.66-26.807-17.23-30.637-32.56-72.763-42.13-19.148-82.34 13.404-11.49 15.318-30.64 26.807-44.05 7.659-11.48 13.404-26.8 24.893-34.46 9.574-17.24 26.807-24.9 40.211-13.41 21.063 21.07 24.892 53.62 53.615 61.28 76.593 26.81 160.843 22.98 235.523-5.75 26.81-11.49 57.44-22.97 82.34-42.12 22.97-17.24 26.8-34.47 19.14-61.28-5.74-91.91 76.6-90 59.36-252.76-21.06-158.93 101.49-132.13 59.36-325.53-15.32-107.23-151.27-88.08-191.48-176.17-24.89-45.95-34.47-38.29-76.59-55.53-57.45-22.97-95.74-59.36-157.02-72.76l-42.122-13.4c-19.148-11.49-28.722-30.64-38.296-49.79-11.489-21.06-17.234-45.96-28.723-67.02l-11.489-44.04c-13.403-22.98-26.807-44.05-30.637-70.85l-5.744-67.02c-1.915-26.81-1.915-90-19.148-112.98-15.319-17.23-40.211-21.06-63.189-28.72l-82.337-26.81c-15.319-7.66-34.467-9.58-49.785-19.15-22.978-19.15-22.978-55.53-15.319-84.25 5.745-9.58 15.319-17.24 21.063-28.73 13.404-28.72 15.319-61.27-1.915-90-9.574-28.72-9.574-59.36-13.403-89.99-3.83-30.64-13.404-63.2-15.319-95.75-1.915-55.53 22.978-105.32 40.211-157.02 7.66-22.98 11.489-51.7 9.574-78.51-1.914-34.46 11.489-36.38 40.212-44.04 19.148-5.74 40.211-7.66 59.359-9.57h44.041c21.062-1.92 38.296-17.24 57.444-26.81 49.785-28.72 84.252 21.06 118.718 49.79 28.724 32.55 63.194 13.4 89.994-11.49l65.11-32.56 59.36-30.63c17.23-5.75 42.12-9.58 42.12-34.47-1.91-17.23 1.92-36.38 11.49-51.7 19.15-22.98 55.53-9.58 80.42-11.49 86.17-1.92 229.78-34.47 206.8-147.45-13.4-63.19-51.7-118.72-57.44-185.74-3.83-17.23-3.83-36.38-9.58-53.61-3.83-19.15-15.31-36.39-13.4-55.54 0-22.97 1.92-44.04-1.91-67.02l-5.75-28.72v-30.64c0-26.8 5.75-49.78 13.4-74.676 3.83-13.404 21.07-22.978 19.15-36.382 1.92-21.064-9.57-42.127 1.92-61.276 7.66-9.574 21.06-13.404 30.63-21.064 17.24-9.574 32.56-22.978 47.88-36.382 11.48-11.489 17.23-30.638 28.72-42.127 17.23-19.149 19.15-45.957 21.06-70.85 1.92-17.234-5.74-32.553-15.32-47.872-7.66-7.659 3.83-19.148 5.75-28.723 3.83-13.404-3.83-24.893-1.92-40.212" stroke="#fff" stroke-miterlimit="10"/><path d="M12.556 1270.99c30.642 17.24 63.198 28.73 91.924 51.71 17.236 15.33 36.386 28.73 47.877 47.88 9.575 13.41 21.066 22.99 24.896 38.31 11.49 24.89-26.811 42.13 3.83 57.45 19.151 7.66 24.896 30.65 42.131 38.31 13.406 1.91 26.811 3.83 38.302 11.49 22.981 17.23 47.877 32.56 70.858 45.96 24.896 17.24 47.876 34.48 72.772 45.97 17.236 9.57 36.387 13.4 53.623 22.98 11.49 1.91 21.065-3.83 30.641-1.92 34.471 13.41 70.857 19.16 103.414 38.31 19.15 9.57 34.471 24.9 47.876 42.13 9.576 19.15 21.066 42.14 44.047 44.05 30.641 11.49 53.622-5.74 82.348-5.74 55.537 7.66 44.047-1.92 86.179-32.56 28.726-19.15 63.197-7.66 88.093 11.49l40.217 30.64c15.32 11.49 30.636 22.98 47.876 24.9 11.49 0 19.15-7.66 28.73-13.41l34.47-15.32c24.89-11.49 47.87-22.98 68.94-38.3 11.49-7.66 24.9-15.32 32.56-28.73 11.49-21.07 9.57-47.88 22.98-67.03 22.98-40.22 70.86-30.65 109.16-26.81 51.7 0 105.33-5.75 145.54-40.22 40.22-44.05 19.15-107.25-5.74-151.3-13.41-22.99-32.56-42.14-44.05-65.12-5.74-17.24-1.91-34.47-5.74-51.71-13.41-51.71-32.56-36.39-36.39-105.34 1.91-34.47-42.13-45.96-32.56-86.18-13.4-22.98-19.15-22.98-22.98-53.62-19.15-67.035 44.05-47.884 68.94-95.763 17.24-21.067 17.24-47.88 24.9-72.777 5.75-21.067 19.15-36.389 34.47-53.626 19.15-24.897 45.96-47.879 53.62-76.607 5.75-17.237 5.75-34.474 3.83-53.625l1.92-45.965c3.83-42.134 11.49-82.353 24.89-122.572 17.24-47.88-15.32-97.675-44.04-134.063-45.96-68.947 0-107.251-97.67-141.724-15.32-11.491-204.91-70.862-107.24-80.438l114.9-17.237c36.39 0 72.77-7.66 103.41-30.643 22.98-9.576 49.8-1.915 63.2-30.643 13.41-22.982 9.58-53.625 9.58-80.437 0-26.813 7.66-51.71 13.4-78.523 11.49-47.88-19.15-88.099-38.3-130.233-36.39-124.487-183.85-128.318-283.43-78.523-38.3 21.067-68.94 47.88-101.5 76.608-22.98 19.152-47.88 34.473-63.2 63.201-15.32 21.067-21.06 51.71-28.72 76.608-17.24 45.964-26.81 93.844-13.41 141.723 21.07 36.389-70.856-1.915-84.261-5.745L876.255 45.274c-42.132-7.661-53.622-55.54-101.499-28.728-19.151 5.745-40.217 1.915-61.283 1.915H621.55c-42.132 7.66-68.943 22.982-114.905 13.406-63.197-9.576-67.027-53.625-103.414-63.2-26.811 3.83-49.791 24.897-74.687 34.472-40.217 19.152-47.877 28.728-61.283 68.947-1.915 17.237-11.49 34.474-19.151 49.795-9.575 30.643-21.065 55.541-26.811 88.099 3.831 34.473 21.066 67.031 28.727 101.505 9.575 40.219 19.15 84.268-3.831 122.572-11.49 21.067-22.98 44.049-21.065 68.946-5.746 24.898-5.746 51.711 1.915 78.523 3.83 24.898 0 51.71 19.15 72.777 53.622 45.965 107.245 55.541 141.716 128.318 5.745 11.491 21.066 21.067 30.641 32.558 21.066 17.237 13.406 44.049 15.321 67.032 13.405 47.879 7.66 36.388-1.915 78.522 0 19.152 7.66 32.559 1.915 49.797l-19.151 44.05c-9.576 15.32-21.066 24.89-32.556 38.3-19.151 17.24-26.811 65.12-59.368 53.63-17.235-9.58-28.726-30.65-49.792-38.31-19.15-7.66-44.046-3.83-63.197-5.74-30.641 0-57.452-5.75-84.263-13.41M48.943 3504.1c36.386 0 72.772-1.91 109.159 7.66 17.236 3.83 36.386 5.75 47.877 19.16 13.405 17.23 19.15 38.3 26.811 57.45l26.811 49.8c7.66 13.4-7.661 26.81-15.321 36.38-7.66 9.58-9.575 21.07-15.32 30.65-13.406 36.39-32.557 70.86-53.622 101.5-5.746 11.49-15.321 19.15-22.981 28.73-11.491 11.49-21.066 24.9-36.387 28.73-59.367 9.57-112.99 32.56-135.97 90.01M1050.53 4500c-7.66-30.64-1.92-65.12 0-95.76 1.91-57.45-47.88-93.84-76.607-137.89-17.236-19.15-26.811-44.05-40.216-65.12-15.321-22.98-34.472-42.13-55.538-59.37-11.49-7.66-19.15-21.07-30.641-30.64l-44.046-34.48c-15.321-9.57-34.472-11.49-47.877-22.98-28.726-30.64-61.283-61.28-3.83-80.44 114.904-40.22 67.027-93.84 116.819-130.23a1232.91 1232.91 0 0174.688-47.88c24.896-3.83 51.707 9.58 61.278 32.56 3.83 11.49-9.571 19.15-7.656 30.64 5.746 17.24 30.646 3.83 42.136 7.66 26.81 7.66 53.62 13.41 80.43 13.41 82.35 3.83 103.41-28.73 134.05-101.51 13.41-28.72 36.39-53.62 55.54-80.43 36.39-63.2 0-135.98 19.15-203.01 24.9-86.19 76.6-130.24 22.98-224.08-19.15-42.13-61.28-63.2-99.58-88.1-22.98-15.32-40.22-42.13-67.03-55.54-28.72-15.32-49.79-40.22-80.43-53.62-70.86-34.48-114.906 22.98-164.698-53.63-24.896-40.22-45.962-84.27-84.263-113-13.406-13.4-7.661-36.38-19.151-53.62-24.896-59.37-24.896-124.49-28.726-185.77-1.915-44.05-22.981-90.02-68.943-101.51-32.556-9.58-70.858-11.49-99.584-30.64a143.66 143.66 0 01-45.961-134.07c3.83-15.32 5.745-32.55 13.405-47.88 15.321-21.06 22.981-47.87 19.151-72.77-11.491-40.22-9.575-82.36-15.321-122.57-3.83-40.22-21.065-78.53-17.235-118.75 3.83-63.2 49.792-122.57 30.641-185.77-24.896-82.35-151.291-78.52-212.573-74.69-34.472 1.91-68.943-11.49-101.499 0-84.263 19.15-44.047 118.74-53.622 180.03-7.661 40.22-7.661 82.35-5.746 122.57 0 22.98-7.66 47.88-9.575 70.86-1.915 17.24 0 36.39-7.66 51.71-17.236 28.73-40.217 53.63-68.943 68.95-36.386 22.98-80.433 34.47-120.65 49.79M847.529-60.062c17.236 21.067 84.264 15.322 61.283-21.067-11.491-11.49-78.518-7.66-61.283 21.067z" stroke="#fff" stroke-width="3" stroke-miterlimit="10"/><path d="M-8.596 1234.2c28.721 19.15 59.358 30.64 89.994 45.96 32.551 17.24 63.188 38.31 91.909 63.2 15.318 11.49 40.21 47.88 57.443 21.07 11.489-17.24 21.063-38.3 42.125-45.96 11.489-5.75 24.893-17.24 38.296-9.58 17.233 9.58 32.551 21.07 47.869 34.47 9.574 7.66 21.063 15.32 28.722 26.81 17.233 24.9-1.915 55.55-17.233 74.7-9.574 15.32-28.722 22.98-30.636 40.22 5.744 38.3 63.187 84.26 95.738 95.75 28.722 3.83 40.211-24.89 76.591-5.74 36.381 17.24 72.762 32.56 105.313 53.62 36.381 21.07 67.017 53.63 105.313 68.95 19.147 5.75 38.295 1.92 57.443 7.66 34.466 9.58 53.614-30.64 86.165-34.47 24.892-3.83 45.954 9.57 63.187 22.98 78.507 51.71 103.397 74.69 193.397 24.9 84.25-40.22 36.38-109.17 107.22-143.64 51.7-21.07 111.06 0 164.67-17.24 88.08-17.23 88.08-109.16 24.9-157.04-38.3-26.81-114.89-3.83-116.81-68.95 5.75-24.9 21.07-53.62 1.92-78.52-21.06-32.56-47.87-21.07-65.1-65.12-15.32-22.98-1.92-26.81 7.66-44.05l15.31-55.54c21.07-44.05 19.15-40.21 19.15-88.09 3.83-34.478 36.38-47.884 61.27-65.12 11.49-9.576 19.15-24.898 24.9-36.389 9.57-26.812 15.31-55.54 26.8-80.437 21.07-45.964 30.64-95.759 45.96-141.723 17.23-53.625 38.29-109.165 38.29-164.706 0-40.218-11.48-82.352-42.12-111.08-17.23-15.321-38.3-28.728-47.87-49.795-42.13-65.116-80.42-84.267-145.52-114.91-59.36-30.643-124.46-36.389-185.74-51.71-24.89-5.746-45.95-21.067-68.929-34.473-13.403-7.661-28.721-9.576-42.125-15.322-61.273-21.067-124.46-26.812-179.989-59.37-40.21-21.067-97.653-19.152-130.204 19.151-7.659 5.746-15.318 15.322-21.063 24.898-17.233 13.406-40.21 13.406-59.358 21.067-34.466 9.576-36.381 49.794-42.125 78.522-7.659 21.067-19.148 38.304-30.636 55.54-17.233 26.813 13.403 34.473 15.318 55.54-1.915 13.407-15.318 19.152-21.063 30.643-9.573 15.322-32.551 3.831-38.295-9.576-5.744-15.321-7.659-36.388-21.063-47.879-19.147-15.322-51.699-26.813-72.761-11.491-24.892 24.897-13.403 65.116-15.318 95.759-1.915 44.049-22.978 84.268-32.551 126.401 1.914 67.032 13.403 91.929 72.761 128.317 13.403 9.576 26.807 24.898 28.722 44.05 9.573 22.982 9.573 51.709 32.551 67.031 17.233 13.406 32.551-5.746 44.04-21.067 1.914-5.746 1.914-21.067 11.488-19.152 9.574 5.745 0 21.067 9.574 30.643 7.659 15.321-3.829 32.558-3.829 45.964 0 30.643 0 59.371 3.829 88.098 9.574 36.389 11.489 55.54 5.744 90.014 1.915 40.222-15.318 76.602-45.954 101.502-24.892 22.98-51.699 42.14-72.762 67.03-15.318 17.24-26.806 38.31-47.869 51.71-7.659 5.75-17.233 17.24-26.807 15.32-9.574-1.91-5.744-13.4-7.659-19.15l-7.659-17.23c-15.318-42.14-63.188-49.8-101.483-51.71M-10.511 3440.48c76.59 9.58 105.312-47.88 176.159-28.73 19.148 5.75 40.21 13.41 59.358 22.99 21.063 7.66 32.551 24.89 34.466 45.96 3.829 21.07 1.915 45.97 11.489 67.03 7.659 17.24 21.062 30.65 36.38 42.14 22.978 19.15 36.381 30.64 11.489 55.54-28.722 30.64-47.869 65.11-67.017 99.59-21.063 38.3-44.04 72.77-72.762 105.33-30.636 44.05-80.42 42.13-122.545 65.12-34.466 21.06-59.358 57.45-63.188 97.67-1.915 22.98 0 51.71-15.318 70.86M935.387 4490c24.893-70.86 53.614-97.67 7.66-174.28-34.466-47.88-45.955-109.17-93.824-147.47-24.892-22.98-42.125-57.46-70.847-76.61-26.807-13.4-53.614-26.81-74.676-47.88-15.318-9.57-38.296-13.4-38.296-36.38 1.915-24.9-19.148-68.95 15.318-82.36 30.637-9.57 63.188 22.98 95.739 7.66 65.103-30.64 26.807-51.71 76.591-105.33 30.637-30.64 45.955-74.69 80.421-105.34 34.466-26.81 78.507-7.66 111.057 13.41 26.81 13.41 51.7 32.56 80.42 40.22 42.13 13.4 70.85-28.73 89.99-59.37 19.15-21.07 42.13-40.22 55.53-67.03 15.32-28.73 15.32-65.12 9.58-95.76-9.58-26.81-5.75-49.8 3.83-74.69 7.66-24.9 9.57-49.8 22.97-70.87 3.83-11.49 5.75-22.98 13.41-34.47 3.83-9.57 1.91-22.98 0-32.56 0-21.06-13.41-34.47-26.81-49.79-21.06-34.47-55.53-63.2-89.99-80.44-45.96-22.98-24.9-53.62-90-63.2-63.19-17.24-72.76 61.29-116.8 34.47-26.807-26.81-53.613-57.45-74.676-90.01-9.574-19.15-19.148-36.39-26.807-57.46-9.574-32.55-21.062-70.86-47.869-95.75l-38.296-30.65c-9.573-7.66-15.318-21.06-21.062-30.64-9.574-19.15-17.233-34.47-28.722-49.79-15.318-21.07-34.466-44.05-28.721-70.87 13.403-40.21 44.039-99.59-9.574-122.57-44.04-19.15-97.654 7.66-118.716-47.88-3.83-17.23-11.489-36.39-19.148-53.62-7.659-11.49-15.318-21.07-19.148-32.56-5.744-17.24 0-36.39 3.83-53.62 3.829-38.31 15.318-72.78 26.807-109.17 19.147-42.13 7.659-91.93 7.659-135.98 1.915-47.88-17.233-90.01-30.637-132.14-5.744-26.82 5.745-55.55 13.404-78.53 49.784-130.23 11.488-180.02-126.375-191.52h-67.018c-32.551-3.83-67.017-7.66-91.909 15.33-32.551 26.81-21.062 72.77-22.977 109.16 0 40.22-15.318 82.35-1.915 118.74 7.659 24.9 34.466 28.73 44.04 49.8 26.807 36.39 38.296 95.76 5.744 134.06-19.147 22.98-47.869 34.47-74.676 47.88-38.295 28.73-88.08 38.3-134.034 49.79-30.636 7.66-61.273 9.58-89.995 21.07M1096.23-20.244c1.91 63.2 57.44 88.098 101.48 116.826 63.19 42.134 130.21 32.558 199.14 24.897 26.81-3.83 57.44-1.915 78.5-19.152 9.58-9.576 19.15-19.151 30.64-24.897 51.7-19.152 47.87-11.491 45.96-65.116 3.82-47.88 24.89-95.759 3.82-141.723l-30.63-49.795c-13.41-30.643-32.55-63.201-63.19-76.607-91.91-38.304-185.73-28.728-256.58 42.134-26.81 26.812-53.61 55.54-76.59 86.183-19.15 32.558-32.55 68.946-32.55 107.25z" stroke="#fff" stroke-width="2" stroke-miterlimit="10"/><path d="M-10.706 1211.48c32.56 21.07 68.95 34.48 105.34 51.72 38.305 19.15 68.949 49.8 109.17 65.12 17.238 1.92 30.645-13.4 44.051-21.06 22.984-9.58 49.797-36.4 74.696-19.16 22.983 15.32 40.221 34.48 65.119 47.89 19.153 9.57 38.306 19.15 51.713 34.47 9.576 11.5 22.983 21.07 30.644 32.57 3.83 9.57 0 17.23-7.661 22.98-1.915 11.49-9.577 21.07-7.661 32.56 11.491 13.41 15.322 32.56 28.729 45.97 17.237 9.58 34.475 21.07 53.627 28.73 17.238 7.66 36.391 11.5 51.713 22.99 26.813 21.07 49.797 47.88 82.356 61.29 13.407 7.66 30.645 9.58 44.052 13.41l47.881 24.9c45.967 21.07 65.12-9.58 109.171-9.58 45.966 0 74.695 44.06 113.001 61.3 51.715 28.73 114.915 11.49 157.055-26.82 21.07-21.07 19.15-51.72 28.73-74.7 11.49-24.9 34.47-40.22 55.54-49.8 19.15-9.58 42.13-9.58 61.29-11.49 45.96 0 99.59 3.83 132.15-30.65 21.07-24.9 13.41-63.21-9.57-82.36-19.16-15.33-44.06-19.16-67.04-26.82-32.56-9.58-68.95-26.81-84.27-59.38-7.66-17.24-1.92-34.47-3.83-51.71-7.66-15.33-26.82-22.99-30.65-40.23-1.91-11.49 3.83-19.15 1.92-30.64l-9.58-53.63c0-19.16 19.16-28.74 21.07-45.97 1.92-11.5 1.92-24.9 5.75-36.4 5.74-15.32 13.4-28.73 13.4-44.05 0-32.56-9.57-65.125 22.99-86.195 40.22-24.9 65.12-49.8 68.95-99.601 0-19.154 7.66-36.393 11.49-53.631l5.74-51.716c7.66-28.732 28.73-51.717 40.22-78.532 19.16-51.716 36.39-105.348 34.48-160.895-1.92-28.731-28.73-45.969-30.64-74.701-1.92-13.407-15.33-19.154-24.9-26.815l-22.99-19.154c-45.96-51.716-93.84-105.348-157.05-132.164-51.71-21.069-109.17-24.9-164.71-32.562-36.39-7.661-70.867-21.069-107.257-30.646-53.628-17.239-97.679-1.915-145.561-45.97-13.407-9.577-28.729-15.323-44.051-17.239-9.577-1.915-17.238 3.831-26.814 0-19.153-7.661-24.899-21.069-47.882-9.577-22.983 11.493-44.051 28.731-65.119 44.055-5.746 7.661-15.322 9.577-17.238 21.069 0 17.239 3.831 34.478 9.577 51.716 11.491 30.647 1.915 34.478-17.238 55.547-9.576 13.408-3.83 30.647-17.237 42.139-11.492 15.323-36.39 13.408-47.882 24.9-11.491 13.408-11.491 30.647-26.814 38.309-19.152 9.577-30.644 28.731-51.712 34.477-15.322 3.831-32.56-1.915-47.882 7.662-24.898 19.154-32.559 91.939-17.237 120.67 22.983 40.224 47.882 17.239 78.526 30.647 13.407 13.408 17.237 34.477 30.644 49.801 17.238 15.323 30.645 22.985 36.39 45.969l15.323 57.463c3.83 34.477 5.745 67.039 19.152 99.601 19.153 42.139 30.645 78.532 24.899 126.417-3.831 36.396 0 82.366-32.56 105.346-26.814 17.24-57.458 22.99-86.187 32.56-47.882 17.24-82.357 57.47-111.086 93.86-22.983 26.81-61.288 22.98-63.204-13.41-11.491-70.87-93.848-59.38-147.476-67.04-53.627-7.66-109.17-22.98-166.628-21.07m-549.683 2028.42c15.322 0 24.899-9.58 40.221-15.32 42.136-11.5 86.187-7.67 128.323 0 21.068 1.91 42.136 7.66 61.288 15.32 15.323 3.83 30.645 5.75 45.967 13.41 17.237 5.74 30.644 26.81 32.56 45.97 0 13.41-9.577 17.24-15.323 28.73-19.152 32.56-30.644 68.95 1.916 97.68 11.491 11.5 24.898 21.07 34.475 36.4 32.559 51.71-19.153 105.34-42.136 149.4-21.068 19.15-38.306 44.05-57.459 65.12l-57.458 59.38c-51.712 61.29-118.746 42.14-164.713 113.01-38.305 53.63 3.831 67.04-11.492 95.77-11.491 17.24-28.729 30.65-42.136 44.05M276.584 4234l21.068-24.9c36.39-49.8 17.238-105.35-15.322-151.32-36.39-72.78-21.068-80.45-90.018-137.91-17.237-15.32-21.068-42.14-38.305-53.63-13.407-7.66-26.814-11.49-40.221-21.07-17.237-11.49-28.729-26.81-45.966-36.39-22.983-7.66-26.814-30.65-30.644-49.8-11.492-40.23-21.069-101.52 38.305-105.35 36.39-5.75 42.136-5.75 78.526 5.75 28.729 1.91 49.797-47.89 68.95-67.04 49.797-61.3 38.305-139.83 120.662-178.14 24.898-13.4 51.712-24.9 78.526-26.81 19.153-1.92 38.305 3.83 59.373 3.83 15.323-1.92 32.56-11.49 49.797-9.58 26.814 0 51.713 7.66 78.527 1.92 24.898-7.66 30.644-45.97 19.152-65.13-24.898-21.06-28.729-34.47-21.068-65.12 1.916-13.41 9.577-24.9 13.407-36.39 9.577-30.65-3.83-59.38 3.831-90.03 9.576-70.87-17.238-86.19-78.526-111.09-24.899-7.66-59.374-36.39-80.442-9.58-9.576 9.58-19.152 19.16-30.644 24.9-24.899 7.66-76.611-5.74-91.933-28.73-11.492-17.24 1.915-42.14-11.492-61.29-9.576-19.16-24.898-36.39-36.39-53.63-11.492-17.24-21.068-40.23-28.729-59.38-13.407-32.56-11.492-65.12-28.729-93.86-13.407-24.9-36.39-38.3-59.373-51.71-36.391-30.65-97.68-26.82-124.493 15.32-19.153 26.82-49.797 99.6-90.018 59.38-21.068-22.99-34.475-65.12-17.237-91.94 32.56-32.56 67.034-45.97 72.78-95.77 3.83-40.22-15.322-76.62-47.882-97.69-26.814-9.57-38.305-24.9-53.627-47.88-36.39-55.55 40.22-63.21 13.407-111.1-28.73-67.03-3.83-67.03 15.322-126.41 11.491-32.56 21.068-65.13 26.814-99.6 9.576-24.9 13.406-51.72 13.406-78.54 0-34.47 0-70.87-11.491-105.34-7.661-26.82-26.814-47.89-34.475-74.7-7.661-44.06 24.898-80.45 34.475-118.76 32.56-97.68-57.458-128.33-135.984-132.16-21.068-1.92-42.136 3.83-61.289 0-49.797-9.58-88.103 13.41-88.103 65.12l-1.915 61.29c-3.83 24.91-11.491 47.89-5.746 72.79 3.831 19.15 19.153 34.48 36.391 45.97 13.406 7.66 26.813 11.49 36.39 24.9 40.22 42.14 17.237 107.26-9.577 153.23-15.322 22.99-38.305 44.06-61.288 61.3-26.814 21.07-55.543 36.39-90.018 40.22-53.628 3.83-107.255 5.75-160.883 15.32-32.559 5.75-49.797 42.14-70.865 63.21M1121.22-14.377c7.66 49.8 59.37 72.785 95.76 99.601 51.72 38.308 120.66 24.901 180.04 19.154 55.54-3.831 65.12-3.831 103.42-45.97 17.24-13.407 26.82-30.646 30.65-49.8 9.57-34.478 19.15-70.87 7.66-105.348-9.58-28.731-30.65-51.716-45.97-76.616-15.32-32.562-32.56-53.631-68.95-65.124-91.93-36.393-170.46-11.492-233.66 63.209-38.31 44.054-82.36 99.6-68.95 160.894zM594.52 1452.83c-11.492-34.48 34.474-47.89 45.966-15.33 7.661 26.82-36.39 42.14-45.966 15.33z" stroke="#fff" stroke-width="1.7" stroke-miterlimit="10"/><path opacity=".5" d="M-23.844 3324.5c24.902 0 47.888-17.24 74.706-11.49 17.24 7.66 36.395 3.83 53.635 1.91 21.071 0 44.058 0 65.129-3.83 24.902-3.83 49.804-15.32 70.875-28.72 24.903-21.07 49.805-26.82 72.791 0 19.156 26.81 24.903 55.54 36.396 84.26 45.973 99.6-30.649 95.77-19.156 162.8 7.663 21.06 26.818 34.47 36.396 55.54 19.155 30.64 26.817 72.78 15.324 109.17-9.578 19.15-22.986 40.21-30.649 59.37-7.662 21.06-21.071 36.39-32.564 55.54-9.578 19.15-34.48 21.07-51.72 32.56-36.395 21.06-59.382 55.54-95.777 78.52-22.987 15.32-51.72 22.98-74.707 38.3l-42.142 38.31c-30.649 36.39 15.325 65.12-22.986 103.42-15.325 15.32-28.734 32.56-47.89 47.88-9.577 7.66-15.324 21.07-26.817 26.81M887.957 4420c19.156-45.97-15.324-82.35-36.395-116.83-15.324-22.98-17.24-49.79-28.733-74.69-7.662-11.49-21.071-19.15-32.565-24.9l-26.817-15.32c-24.902-7.66-34.48-7.66-45.974-32.56-9.577-13.41 1.916-36.39-15.324-45.96-13.409-11.5-19.155-24.9-32.564-36.39-13.409-7.66-32.565-13.41-36.396-32.56-9.577-38.31-26.817-78.53-22.986-116.83 1.915-21.07 9.577-53.63 38.311-47.88 30.648 5.75 45.973-9.58 74.706-17.24 51.72 0 91.947-15.32 113.018-68.94 15.324-36.39 15.324-80.44 44.057-114.92 15.325-21.06 36.396-40.22 55.551-59.37 21.071-26.81 44.058-51.71 72.794-67.03 19.15-15.32 30.65-24.9 55.55-13.41 45.97 11.49 82.37 3.83 103.44-40.22 11.49-28.72 15.32-57.45-15.33-74.69-11.49-5.74-24.9-9.58-30.65-19.15l-38.31-47.88c-26.81-22.98-59.38-38.31-93.858-53.63-59.382-19.15-63.214-47.88-72.791-103.42-3.831-9.57-15.325-17.24-22.987-26.81-13.409-15.32-24.902-34.48-30.649-55.54-21.071-38.31-15.324-88.1-38.311-128.32-24.902-42.14-88.115-51.71-128.342-24.9-42.142 28.73-59.382 91.93-114.933 103.42-38.311 7.66-49.804-36.39-51.719-65.12-3.832-26.81-7.663-51.71-3.832-78.52 0-15.32 11.494-28.73 21.072-40.22 19.155-24.9 40.226-49.79 40.226-82.35 3.831-30.65-32.564-42.14-49.804-63.2-13.409-15.33-19.156-32.56-32.565-49.8-13.408-15.32-26.817-32.56-28.733-53.63-3.831-28.72 17.24-51.71 22.987-78.52 5.746-15.32 1.915-34.47 5.746-51.71 3.832-19.15 15.325-36.39 22.987-51.71 22.987-36.39 30.649-80.44 36.396-122.57 19.155-65.12 28.733-137.9-11.494-197.27-22.986-40.22-57.466-45.97-22.986-103.42 34.48-57.46 74.706-143.64-15.325-174.29-24.902-11.49-53.635-15.32-80.453-19.15h-65.129c-57.466 1.92-55.551 51.71-51.719 93.85 1.915 22.98-7.663 42.13-11.494 63.2-7.662 65.12 65.129 67.03 95.778 105.34 22.986 28.72 3.831 68.94-3.831 99.59-21.071 61.28-63.214 112.99-116.849 149.38-26.818 13.41-55.551 36.39-88.115 30.65-26.818-3.83-53.636 1.91-78.538 3.83-26.818 1.91-57.466-5.75-82.368 7.66-13.41 7.66-21.072 21.06-30.65 32.56M1138.89-21.371c7.67 45.965 49.81 70.862 86.2 95.76 42.15 34.474 101.53 26.813 151.33 21.068 30.65-5.746 63.22-1.916 90.03-19.153a168.628 168.628 0 0045.47-61.105 168.619 168.619 0 0013.92-74.874c-1.92-28.729-17.24-53.626-36.4-74.694l-30.65-49.795c-36.39-55.541-143.66-63.202-197.3-34.474-59.38 34.474-136 126.404-122.6 197.267zM646.598 187.387c7.662 15.321 28.734 11.491 40.227 19.152 28.733 17.237 55.551-5.746 38.311-34.474-22.987-22.983-84.284-28.728-78.538 15.322zM527.834 388.484c7.662 7.66 21.071-1.916 13.409-9.576-5.747-7.661-19.155 1.915-13.409 9.576zM-21.929 1164.14c32.565 47.88 93.862 57.46 137.92 86.19 82.368 47.88 72.791 68.95 162.822 19.15 11.493-3.83 24.902-3.83 38.311-5.75 13.408-3.83 21.071 9.58 30.648 19.16 24.903 34.47 63.214 45.96 101.525 59.37 36.395 22.98 78.537 13.4 118.764 11.49 17.24 3.83 28.733 17.24 42.142 22.98 17.24 9.58 38.311 13.41 53.635 26.81 49.804 30.65 15.325 82.36-7.662 116.83-17.24 42.14 28.733 72.78 63.213 82.36l80.453 26.81c84.284 0 84.284-22.98 155.16 40.22 36.395 32.56 95.778 47.88 136.008 15.32 26.81-17.24 42.14-13.41 51.72-49.79 11.49-59.38 7.66-47.89 53.63-84.27 22.99-17.24 51.72-26.82 78.54-30.65h61.3c47.89-3.83 90.03-44.05 40.22-80.44-17.24-13.4-38.31-19.15-59.38-24.89l-47.89-21.07c-34.48-19.15-34.48-15.32-42.14-51.71-7.66-24.9-17.24-49.8-19.16-74.7-3.83-19.15 7.67-34.47 5.75-51.71 0-19.15-9.58-38.3-5.75-57.45 13.41-34.48 17.24-26.82 17.24-65.12 1.92-17.24 15.33-30.64 17.24-47.88 3.84-19.15-11.49-36.39-7.66-55.541 5.75-42.134 53.64-47.88 74.71-78.523 19.15-22.983 11.49-49.796 9.58-74.693 1.91-13.407 11.49-24.898 13.41-36.389 3.83-21.068-1.92-40.22 3.83-59.372 11.49-51.71 44.05-45.965 45.97-97.676 3.83-22.982 15.32-42.134 19.16-63.201l5.74-70.863c-5.74-15.322-19.15-26.813-26.82-40.22-11.49-17.236-21.07-36.389-34.48-51.71-24.9-28.728-51.72-53.626-80.45-78.524-32.56-34.474-74.71-57.456-120.68-67.032-63.21-17.237-130.26-5.746-191.554-30.644-74.706-17.236-78.537 15.322-139.835 44.05-24.902 11.491-51.72 22.983-78.537 28.728-51.72 7.661-91.947 42.135-101.525 95.761-9.577 30.643 3.832 70.863-17.24 99.591-17.239 17.237-42.142-5.746-57.466-13.407-13.409-7.661-32.564-11.491-42.142-28.728-22.987-53.626-49.804-11.491-86.2 1.915-17.24 3.831-26.818 21.068-28.733 40.22-5.747 17.237 0 38.304 19.155 44.05 36.396 13.406 45.974-21.068 72.791-15.322 15.325 5.746 11.494 44.05 24.902 59.371 11.494 19.153 40.227 24.898 38.311 51.711 0 45.965 9.578 90.015 15.325 135.98 5.746 30.643 22.986 59.371 32.564 90.015 15.325 36.389 17.24 74.693 19.156 114.912 0 22.981 11.493 47.881 0 70.861-13.409 22.98-22.987 53.63-51.72 61.29-61.298 15.32-137.92 1.91-185.809 55.54-19.155 21.07-32.564 47.88-55.551 65.12-11.493 3.83-26.817-5.75-40.226-9.58-40.227-32.56-7.662-82.35-95.778-86.18-32.564 0-67.044 0-101.524-5.75-28.733 0-134.088-30.64-114.933 22.98z" stroke="#fff" stroke-miterlimit="10" stroke-linecap="round" stroke-linejoin="round" stroke-dasharray="20.47 20.47"/><path d="M61.98 3262.92c17.245 0 30.657 11.49 47.902 15.32 24.909 7.67 53.651-1.91 72.812-19.15 11.496-9.58 21.077-22.99 28.741-36.4 7.665-15.32 11.497-28.73 21.077-42.14 15.329-30.65 38.322-61.3 44.071-95.78 3.832-36.39-9.581-72.79 0-109.18 1.916-15.33 21.077-19.16 32.573-15.33 17.245 9.58 22.993 30.65 21.077 47.89 1.916 42.14 36.406 55.55 67.064 72.79 19.161 17.24 26.825 51.72 55.567 57.47 9.58 0 28.741-45.98 30.657-55.55 11.497-34.48 17.245-72.79 19.161-109.19 3.832-57.47 9.581-76.62 36.406-124.51 11.497-28.73 15.329-61.3-7.664-82.37-22.993-17.24-26.826-49.8-42.154-72.79-34.49-40.23-45.987-67.05-22.994-116.85 15.329-28.73 15.329-59.38 22.994-88.12 13.412-30.64 34.489-55.55 44.07-88.11 15.329-34.48 11.497-76.62 21.077-113.02 9.58-44.06 11.497-91.95-9.58-132.17-17.245-24.9-44.071-49.81-76.644-49.81-32.574 1.92-42.155 63.22-53.651 88.12a335.245 335.245 0 01-157.12 183.89c-74.728 47.89-63.232 0-137.959 28.74-24.91 13.4-53.651 9.57-80.477 13.4-19.16 3.84-32.573 19.16-45.986 30.65m9.58 224.12c22.994 9.58 44.07 24.91 59.4 42.15 19.16 63.21-24.91 34.48-55.567 59.38M862.909 4418c15.329-36.4-13.413-65.13-42.154-78.54-13.413-22.98-3.833-24.9-34.49-32.56-11.497-5.75-19.161-17.24-26.826-26.82-7.664-11.49-9.58-24.9-19.161-34.48-28.741-28.73-49.818-65.13-76.643-95.78-15.329-17.24-24.91-34.48-44.071-45.97-17.245-19.16-13.412-45.97-13.412-68.96-1.917-26.82-9.581-49.81-17.245-74.71-11.497-42.14 1.916-86.2 13.412-126.42 21.077-30.65 45.987 11.49 63.232 22.98 15.328 3.83 24.909-13.41 40.238-15.32 24.909-7.66 51.734-5.75 74.728-17.24 44.07-21.07 44.07-74.71 59.399-114.94 7.664-22.98 17.245-44.05 32.573-63.21 17.245-21.07 30.658-47.89 42.154-72.79 9.581-36.4 21.078-91.95 68.98-88.12 57.487-9.57 45.987-5.74 97.717 9.58 26.83 1.92 38.33-28.73 23-47.89-7.67-13.41-23-21.07-34.49-32.56-11.5-13.41-24.91-28.74-38.32-38.31l-47.907-49.81c-68.98-40.22-57.483-38.31-88.141-107.27-9.58-34.48-42.154-40.23-51.734-80.45l-15.329-67.05c-3.832-22.98-5.748-45.97-19.161-67.04-22.993-40.23-80.476-36.4-113.05-7.66-21.077 17.24-38.322 40.22-57.483 61.29-19.161 17.24-38.322 30.65-59.399 44.06-32.573 15.33-68.979 28.74-101.553 45.98-13.413 3.83-22.993-15.33-34.49 1.91-5.748 5.75-7.664 17.24-11.496 22.99l-24.91 30.65c-13.412 9.57-26.825 17.24-36.406 32.56-13.412 34.48-19.161 72.79-9.58 109.19 7.664 22.98 24.909 45.97 21.077 72.79-1.916 42.14-51.735 82.37-22.993 126.43 24.909 34.48 57.483 97.69 51.734 143.66-5.748 32.57-32.573 59.38-42.154 91.95-9.58 15.32-13.412 32.56-19.161 49.8-3.832 9.58-1.916 24.91-15.328 28.74-22.994 0-45.987 3.83-68.98 13.41-28.741 15.32-53.651 44.05-82.392 63.21-26.826 17.24-55.567 28.73-80.476 49.8-55.567 40.23-13.413 70.88-49.819 116.85-17.245 24.91-40.238 44.06-59.399 67.05M1152.24-31.838c3.83 44.058 42.15 70.875 74.73 91.946 32.57 28.734 78.56 30.65 118.8 26.818l65.14-9.578c19.16-1.915 38.33-1.915 55.57-13.408 17.24-15.325 24.91-40.227 36.41-61.298 21.07-36.396 13.41-82.37-13.42-113.018l-36.4-47.889c-11.5-24.902-32.58-44.058-59.4-53.636-59.4-21.071-132.21-9.577-174.37 38.312-36.4 38.311-70.89 88.115-67.06 141.75zM439.451 510.264c7.665 5.747 19.161-1.915 15.329-11.493-5.748-7.662-22.993 1.915-15.329 11.493zm-82.392 748.986c13.413 51.72 72.812 59.38 116.882 72.79 34.49 9.58 70.896-1.92 105.385 1.91 21.077 9.58 38.322 26.82 61.315 34.48 26.826 11.5 61.316 21.07 72.812 51.72 7.665 22.99 3.832 47.89-1.916 68.96-9.58 22.99-30.657 49.81-7.664 70.88 22.993 24.9 80.476 34.48 114.966 42.14 30.657 5.75 63.231-1.91 91.972 11.49 30.658 17.24 51.735 49.81 84.309 63.22 53.65 21.07 70.9-9.58 114.97-30.65 24.9-21.07 11.49-42.14 22.99-65.13 11.5-19.16 34.49-28.73 49.82-42.14 7.66-5.75 7.66-17.24 17.24-22.99l40.24-11.49c9.58-1.92 19.16-9.58 28.74-9.58 13.41 0 28.74 5.75 44.07 5.75 44.07 1.91 74.73-34.48 28.74-63.22-19.16-9.57-42.15-13.41-63.23-19.15-17.24-5.75-36.4-7.66-47.9-19.16-13.41-11.49-21.08-26.82-22.99-44.06l-17.25-57.46c-7.66-30.65 9.58-57.47 11.5-86.2 0-22.99-9.58-47.89-5.75-70.88 9.58-19.15 9.58-38.31 13.41-57.46 3.83-13.41 15.33-24.91 17.25-40.23-1.92-32.57-21.08-38.31-5.75-80.454 19.16-34.48 68.98-30.649 76.64-78.538 1.92-22.987-17.24-45.974-3.83-68.96 11.5-17.24 13.41-34.48 13.41-53.636 1.92-19.155 7.67-38.311 13.42-55.551 5.74-17.24 11.49-30.649 22.99-44.058 5.75-11.493 3.83-24.902 9.58-36.395 5.75-15.325 13.41-28.734 15.33-45.974l1.92-61.298c-13.42-55.551-51.74-101.524-93.89-139.835-32.58-30.649-65.15-61.298-109.22-76.622-57.48-19.156-116.88-24.903-178.199-21.072-44.07-3.831-53.65 1.916-91.972 21.072-34.49 3.831-68.98 7.662-97.721 30.648-159.036 99.609-91.973 111.103-155.204 256.685-11.497 28.733-26.826 55.551-40.238 82.369-9.581 38.311-13.413 80.453-5.749 118.765 1.916 21.071 13.413 36.395 21.077 55.551 15.329 32.564 30.658 67.044 38.322 103.44 3.833 24.902 13.413 51.723 30.658 72.793 24.909 44.06 26.825 72.79-26.825 90.03-55.567 53.63-137.96 32.56-208.855 45.97-30.658 7.66-63.231 26.82-78.56 53.64-9.581 15.32-21.077 30.65-17.245 47.89zm-34.49 754.73c15.329 30.64 55.567 38.31 86.224 51.72 30.658 15.32 57.483 5.74 76.644-21.08 17.245-19.15 32.574-38.31 44.071-61.29 26.825-42.15 30.657-95.78-21.077-116.85-40.238-11.5-134.127-42.14-166.701-9.58-19.161 19.16-3.832 44.06-1.916 65.13 1.916 34.48-30.658 59.38-17.245 91.95zm-218.435-817.95c5.748 13.41 19.161 21.07 32.574 30.65 15.328 13.41 32.573 26.82 53.65 34.48 21.077 3.83 45.987 3.83 65.148-7.66 11.496-11.49 0-28.73 0-42.14-11.497-49.81-53.651-55.55-95.805-42.14-15.329 5.74-61.315 3.83-55.567 26.81z" stroke="#fff" stroke-width="2" stroke-miterlimit="10"/><path d="M-4.284 3237.99c120.609-28.73 86.15 22.98 139.753 11.49 17.23-7.66 34.46-19.15 45.946-32.56 19.144-28.73 30.631-59.37 44.032-90.01 7.657-17.23 3.829-36.39 5.743-53.62 1.914-30.64 0-61.28-7.658-90.01-7.657-36.39-15.315-74.69-36.374-107.25-15.315-19.15-40.202-30.64-61.261-42.13a145.553 145.553 0 00-57.788-15.12c-20.1-.99-40.188 2.2-58.992 9.38-21.058 3.83-24.887 24.89-42.117 32.55m51.69-201.08c21.058 9.58 40.202 21.07 59.346 34.47 19.145 17.24 38.289 36.39 61.262 51.71 42.117 24.9 65.09 67.03 86.149 109.16 34.459 45.96 68.919 63.2 118.694 86.18 11.486 7.66 9.572 22.98 11.486 32.55 5.744 22.99 0 47.88 19.144 65.12 17.23 15.32 47.861 24.89 68.92 17.23 42.117-32.55 40.202-90.01 49.774-135.97 5.744-34.47 26.802-65.11 26.802-99.58 1.915-22.98-11.486-44.05-22.973-61.29-9.572-15.32-11.486-32.55-17.229-47.87-7.658-17.24-19.145-30.64-28.717-44.05-7.657-19.15-11.486-42.13-7.657-63.2 5.743-26.81 15.315-49.79 22.973-74.69 7.657-28.72 15.315-57.45 30.63-82.34 15.316-24.9 30.631-51.71 32.545-82.35 1.915-21.07 0-44.05 5.744-63.2 7.657-36.39 13.401-74.69 1.914-109.16-24.887-61.28-74.662-65.11-99.55-1.92l-28.716 63.2c-19.144 26.81-38.288 53.62-59.347 76.61-38.288 34.47-84.234 63.19-130.181 86.17-24.887 11.49-53.603-9.57-76.576 7.66-22.973 7.67-44.032 19.16-67.005 28.73-11.487 3.83-24.887-5.74-36.374-3.83-19.144 0-32.545 13.41-47.86 17.24M832.318 4433c15.315-15.32 19.144-42.13 1.914-55.54-21.059-13.4-45.946-13.4-68.919-19.15-19.144-7.66-26.802-49.79-34.46-68.94-5.743-24.9-21.058-44.05-36.374-63.2-13.401-19.15-26.802-38.3-44.031-53.62-19.144-21.07-65.091-19.15-68.919-49.79-1.915-42.14 7.657-86.18-5.744-126.4-9.572-24.9-32.545-47.88-28.716-74.69 1.915-17.23 11.487-30.64 17.23-44.05 7.658-15.32 9.572-32.55 11.486-47.87 7.658-63.2 65.091-21.07 99.55-9.58 21.059 5.75 44.032-1.91 65.09-3.83 24.888-5.74 44.032-21.06 59.347-38.3 13.401-26.81 19.145-57.45 30.631-86.18 13.401-40.22 45.946-72.77 51.689-114.9 3.829-34.48-21.058-65.12-19.144-99.59 0-11.49-5.743-24.89 0-36.38 9.572-15.33 22.973-30.65 42.118-26.82 44.031 13.41 84.234 0 61.261-53.62-9.572-19.15-30.631-30.64-45.946-45.96-21.059-28.73-26.802-68.94-49.775-97.67-17.23-19.15-32.545-40.22-45.946-63.2-11.487-42.13-5.743-90.01-28.716-128.31-38.289-59.37-97.636-1.91-132.095 32.56-22.973 22.98-47.861 44.05-74.663 65.11l-45.946 38.3c-19.144 24.9-38.288 51.71-68.919 61.29-22.973 7.66-53.604 7.66-72.748 21.06-13.401 13.41-17.229 32.56-24.887 47.88-15.316 40.22 11.486 74.69 19.144 111.07 1.914 36.39-21.059 68.95-24.887 103.42-1.915 32.55 19.144 57.45 30.63 84.26 11.487 34.47 38.289 65.11 34.46 103.42-7.658 38.3-44.032 65.11-53.604 105.33-15.315 26.81 3.829 80.43-32.545 91.92-47.861 1.92-67.005-9.57-111.036 24.9-42.118 36.38-103.379 55.53-137.839 99.58-11.486 15.32-13.4 30.64-15.315 49.79-5.743 19.15-11.487 38.31-24.887 53.63-21.059 24.89-44.032 49.79-70.834 72.77M1165.43-27.235c5.74 36.386 36.37 59.367 65.09 80.433 28.71 24.897 70.83 30.642 109.12 24.897l70.83-9.576c17.23-3.83 36.38-1.915 49.78-11.49 15.31-15.321 22.97-36.387 32.54-55.538 22.98-36.386 7.66-82.349-19.14-111.075-19.15-19.151-26.8-45.962-45.95-63.198-32.54-32.556-82.32-40.216-126.35-34.471-70.83 9.575-147.41 109.16-135.92 180.018zM374.772 1259.7c11.486 45.96 67.004 53.62 105.293 61.29 34.459 3.83 68.919-3.83 103.378 3.83 9.572 1.91 17.23 9.57 26.802 13.4 13.401 9.58 30.631 15.32 44.032 21.07 30.63 11.49 65.09 21.06 74.662 55.53 13.401 28.73 11.487 61.29 7.658 91.93 0 9.57-5.744 21.06-1.915 30.64 7.658 13.41 24.888 21.07 38.289 26.81 36.374 13.41 72.748 22.98 109.122 22.98 59.347 3.83 82.32 80.44 139.757 80.44 32.54 1.91 61.26-22.99 80.4-45.97 19.15-38.3 11.49-53.62 51.69-84.26 17.23-11.49 13.4-40.22 36.37-44.05 34.46-1.91 63.18-24.89 97.64-15.32 15.31 1.92 30.63 3.83 42.12-3.83 15.31-11.49 0-30.64-13.4-32.55-21.06-3.83-40.21-1.92-59.35-5.75-47.86-7.66-47.86-42.13-72.75-72.77-11.49-11.49-7.66-22.98-9.57-34.47-5.74-26.82-5.74-53.63 3.83-78.52 3.83-15.32 15.31-28.73 13.4-44.05-5.74-26.81-7.66-68.94-44.03-57.45-19.15 5.74-32.55-17.24-22.98-32.56 9.58-19.15 36.38-1.91 51.69-13.4 9.58-7.66 13.4-21.07 17.23-30.65 5.75-9.57 11.49-17.23 13.4-26.81 1.92-19.15-11.48-34.47-11.48-51.704-3.83-22.981 5.74-45.962 21.06-63.198 9.57-11.491 26.8-17.236 38.28-24.896 44.04-34.472-17.23-45.962 5.75-88.094 11.48-22.981 21.06-45.962 26.8-68.943l21.06-72.774c22.97-53.622 47.86-109.16 34.46-168.527-13.4-51.708-51.69-90.009-89.98-124.481-72.75-72.773-185.7-97.669-287.163-78.518-22.973 5.745-44.032 19.151-67.005 26.811-22.973 1.915-45.946-5.745-65.09 5.745-34.459 17.236-61.261 47.877-84.234 78.519-28.717 32.556-47.861 74.688-57.433 116.82-13.401 51.707-45.946 95.754-65.09 145.546-13.401 45.962-19.144 105.33 1.914 147.462 15.316 30.641 30.631 59.368 49.775 88.094 13.401 34.472 30.631 63.198 68.919 76.603 19.144 9.576 17.23 32.555 17.23 49.795 0 19.15 1.914 38.3-7.658 55.54-9.572 15.32-26.802 28.72-44.031 38.3-11.487 5.74-26.802 9.57-36.374 19.15-19.144 13.4-42.118 7.66-63.176 15.32-47.861 13.4-97.635-1.92-145.496 5.74-45.946 3.83-99.55 36.39-93.806 86.18zm752.368 112.99c-5.74-13.4 17.23-19.15 24.89-9.57 1.91 13.4-19.15 22.98-24.89 9.57zM340.312 2008.5c17.23 26.81 61.261 32.56 89.978 38.3 36.374 0 86.148-59.36 95.721-93.84 19.144-59.36-32.546-78.51-80.406-84.26-15.315-5.75-30.631-15.32-47.86-15.32-17.23 0-44.032 5.74-47.861 24.9 0 19.15 13.401 36.38 9.572 55.53 3.829 28.73-32.545 47.88-19.144 74.69zM183.33 1215.66c9.572 24.89 59.347 17.23 45.946-13.41-9.572-24.9-57.433-15.32-45.946 13.41z" stroke="#fff" stroke-width="1.7" stroke-miterlimit="10"/><path d="M-14 3193.71c22.976 15.32 53.61 11.49 78.501 11.49 26.806 0 51.696-5.74 78.502-1.91 26.805 0 30.634-32.56 40.208-51.71 5.744-21.07 19.146-38.31 21.061-59.38 0-21.06 9.573-42.13 7.659-63.2-1.915-42.13-17.232-82.35-38.294-116.83-32.549-42.13-80.416-80.44-135.94-74.69-21.062 0-38.294 13.4-51.697 28.73m3.83-229.83c45.951 11.49 89.989 36.39 126.367 67.03 34.464 22.98 67.014 45.97 95.734 74.7 30.634 36.39 55.525 76.61 86.16 111.08 19.146 17.24 45.952 26.81 63.184 47.88 21.061 26.81 1.914 107.25 57.44 93.85 42.122-11.49 49.781-76.61 59.354-111.09 3.83-26.81 13.403-49.79 15.318-76.61 3.829-21.06-3.83-40.22-9.574-61.28l-19.146-63.21c-9.574-28.72-34.464-53.62-32.55-86.18-1.914-28.73 7.659-55.54 15.318-82.36 7.658-28.72 15.317-57.45 28.72-84.27 15.317-38.3 45.952-70.86 42.122-112.99-7.658-44.06 5.744-86.19 0-130.24-3.829-26.81-26.805-51.71-51.696-28.73-11.488 13.41-17.232 30.64-26.805 45.97-13.403 24.89-32.549 45.96-51.696 67.03-22.976 30.64-51.696 55.54-84.245 76.61-30.635 17.24-61.27 42.13-97.648 51.71-22.976 3.83-49.782 5.75-72.758 13.41-24.89 3.83-47.866 13.4-72.757 15.32-21.061-1.92-40.208 13.4-61.27 15.32M772.929 4475c5.744-19.15 21.061-36.39 38.293-49.8 19.147-11.49 19.147-42.13-9.573-44.05-74.672 3.83-86.16-44.05-99.563-107.25-11.488-28.73-32.549-51.71-55.525-72.78-26.806-32.56-55.526-9.57-86.16-3.83-30.635 5.75-53.611-32.56-28.72-53.62 32.549-13.41 36.378-44.06 32.549-76.61 0-36.39-11.488-72.78-42.123-95.77-15.317-13.4-42.122-36.38-28.72-59.37l36.379-30.64c15.317-9.58 21.061-28.73 22.976-45.97 11.488-44.05-28.72-93.84 24.891-74.69 40.208 11.49 76.586 36.39 118.709 40.22 34.464 1.91 65.099-15.32 86.16-40.22 13.403-15.32 21.061-36.39 28.72-53.63l24.891-61.28c13.402-24.9 28.72-57.46 19.146-88.11-7.658-17.23-13.402-36.38-13.402-57.45 0-19.15-1.915-42.14 1.914-61.29 3.83-13.41 5.744-28.73 13.403-40.22 11.488-17.24 47.867-24.9 45.952-49.8l-19.147-70.86c-7.658-22.98-21.061-45.96-36.378-65.12-13.403-21.06-28.72-38.3-38.294-61.28-9.573-44.05-5.744-157.05-78.501-122.58-22.976 13.41-42.123 34.48-63.184 47.88-24.891 22.98-51.696 40.22-74.672 65.12l-38.293 42.13c-11.488 15.33-24.891 34.48-42.123 45.97-36.378 28.73-91.904 7.66-114.88 55.54-32.549 40.22 9.574 82.36 9.574 126.41-3.83 51.71-38.294 90.01-5.744 139.81l28.72 65.12c19.146 26.81 45.951 53.62 40.207 90.01-7.658 19.16-24.89 34.48-40.207 49.8-24.891 28.73-40.208 67.03-28.72 107.25 3.829 34.48 45.951 55.54 30.634 82.36-9.573 17.23-30.634 24.89-49.781 32.56-11.488 3.83-34.464 19.15-42.123 0-3.829-13.41 3.83-26.82-3.829-42.14-13.403-32.56-59.355-22.98-80.416-7.66-38.293 24.9-80.416 42.13-114.88 70.86-40.208 26.82-36.379 80.44-63.184 118.75-13.403 21.06-32.55 38.3-49.781 57.45M1175.01-33.452c3.83 34.474 28.72 59.373 57.44 76.61 22.97 21.067 55.52 30.643 86.16 26.813 28.72 0 57.44-7.661 86.16-11.492 17.23-3.83 36.38 0 51.69-11.491 34.47-45.965 57.44-93.846 17.24-143.642-34.47-32.559-38.3-74.694-88.08-93.847-44.04-15.321-97.65-13.406-134.03 15.322-44.03 32.559-82.33 84.27-76.58 141.727zM388.08 1259.33c30.635 67.03 128.283 40.22 187.637 53.63 17.232 1.91 32.55 11.49 47.867 19.15l57.44 22.98c103.392 36.39 53.61 130.24 103.392 181.95 22.976 15.32 49.781 24.9 74.672 32.56 26.805 3.83 55.525 7.66 78.501 22.98 24.891 21.07 42.123 55.54 78.501 59.37 26.81 5.75 51.7-13.41 68.93-32.56 9.57-13.4 11.49-32.56 21.06-44.05 9.57-21.07 24.89-38.3 40.21-51.71 9.57-9.58 13.4-24.9 22.97-32.56 19.15-17.24 76.59-22.98 40.21-55.54-9.57-15.32-15.32-30.64-26.8-42.14-17.24-19.15-51.7 7.67-65.1-17.23-13.41-24.9 24.89-28.73 30.63-47.88 7.66-30.65 1.92-65.12 19.15-91.93 7.66-11.5 22.97-24.9 11.49-40.22-9.58-17.24-26.81-15.33-44.04-11.5-45.95 0-40.21-120.65 7.66-118.74 82.33-9.58 13.4-51.71 24.89-95.761 7.66-42.135 40.21-72.779 51.69-112.999 1.92-28.728 19.15-51.711 32.55-74.694 13.41-24.898 24.89-51.711 32.55-78.524 26.81-91.931 78.5-178.116 3.83-262.387-36.38-44.05-80.41-84.27-132.11-103.422-78.5-30.644-160.831-36.389-235.503 3.83-40.208 19.153-68.928-11.491-107.221 30.644-34.464 32.559-53.611 74.694-80.416 111.083-17.232 26.814-19.147 57.457-32.549 84.271-21.062 44.05-49.782 84.27-61.27 130.235-21.061 80.44 1.915 139.812 57.44 197.269 15.317 17.237 17.232 40.22 32.549 53.626 49.782 26.814 67.014 13.407 65.099 80.439 7.659 55.54-7.659 90.02-59.355 113l-61.269 30.64-61.269 19.16c-59.355 5.74-120.624-17.24-178.064 3.83-24.891 9.57-51.696 34.47-45.952 63.2zm-26.805 735.45c11.488 24.89 65.098 34.47 88.074 22.98 40.208-19.15 89.99-80.44 45.952-118.74-15.317-13.41-40.208-13.41-59.354-19.16-11.488-3.83-21.062-13.4-34.464-15.32-11.488-1.91-28.72 5.75-30.635 19.15 7.659 26.82 13.403 45.97 5.744 72.78-3.829 13.41-15.317 24.9-15.317 38.31zm172.319 1746.69c-7.658-11.49 13.403-5.75 9.574 3.83-3.83 1.91-7.659-1.92-9.574-3.83z" stroke="#fff" stroke-width="1.7" stroke-miterlimit="10"/><path d="M51.184 3185.89c42.135-1.92 95.761-9.58 111.082-55.55 32.559-61.29 47.88-103.43 17.237-170.46-26.813-53.63-80.438-107.26-141.725-111.1-24.898 0-38.304 21.07-57.456 32.57m36.389-247.08l55.54 22.98c19.153 9.58 38.305 24.9 57.457 38.31 22.982 13.4 45.965 28.73 65.117 45.97 32.558 24.9 59.371 55.54 88.099 86.19 13.407 13.4 19.152 30.64 32.559 44.05 40.219 45.97 70.862 38.31 76.608 113 7.661 30.65 38.304 7.67 45.965-11.49 17.237-32.56 21.067-70.87 26.813-105.34 7.66-40.22-9.576-76.62-11.492-116.84 0-30.64-15.321-57.46-26.812-84.27-9.577-36.39-1.916-72.79 7.66-107.26l24.898-88.11c13.406-36.39 42.135-67.04 44.05-105.34 0-21.07-11.491-38.31-13.407-59.38-9.576-61.29-45.965-22.98-74.693 0-34.473 28.73-63.201 65.12-103.421 86.19-42.134 26.82-86.184 55.55-134.064 63.21-44.05 5.74-86.184 7.66-126.404 19.15-13.406 5.75-21.067 17.24-34.473 17.24m-47.88 1844.48c34.473 28.73 32.558 80.44 7.66 113.01M736.828 4473c13.406-15.32 17.237-36.39 26.813-51.71 5.745-15.33-19.152-21.07-26.813-30.65-15.322-11.49-26.813-28.73-38.304-44.05-38.304-49.8 5.745-67.04-45.965-99.6-28.728-19.15-55.541 7.66-84.269 5.74-22.983-1.91-44.05-9.57-67.033-17.23-36.388-9.58-22.982-45.97-1.915-63.21 11.491-13.41 15.322-28.73 26.813-38.31 30.643-13.4 28.728-44.05 22.983-70.86-15.322-91.94-120.658-68.96-183.86-53.63-26.813 3.83-49.795-9.58-57.456-34.48-5.746-9.58 3.83-24.9-7.661-28.73-22.983 0-47.88 13.41-68.947 21.07-34.474 13.41-70.863 32.56-95.761 63.2-15.321 19.16-21.067 44.06-30.643 67.04-11.491 24.9-26.813 47.89-47.88 67.04-24.898 30.64-59.371 49.8-91.93 68.95M1186.9-28.068c5.75 32.561 32.56 53.63 57.46 68.953 28.73 24.9 70.86 22.984 105.33 17.238l59.37-9.576c13.41-3.831 28.73-3.831 40.22-13.408 42.14-40.222 55.55-97.683 5.75-139.82-17.24-21.069-26.81-49.799-51.71-65.122a139.79 139.79 0 00-68.19-21.076 139.822 139.822 0 00-69.71 15.33c-47.88 30.645-91.93 88.106-78.52 147.482zM422.734 3837.1c5.746 68.96 105.336 42.14 111.082-13.4 1.915-13.41-9.576-24.9-15.322-36.39-9.576-13.41-19.152-30.65-38.304-30.65-34.473 5.75-63.202 45.97-57.456 80.44zm-17.237-2576.14c28.728 45.97 91.93 26.82 135.98 36.39 57.456 7.66 109.167 34.48 162.792 55.55 80.439 34.47 47.88 134.07 109.167 176.21 42.135 34.48 105.336 22.98 143.64 59.38 28.728 36.39 68.944 74.69 109.164 28.73 11.49-11.5 17.24-28.73 24.9-44.06 13.41-21.07 30.64-42.13 49.8-61.29 9.57-7.66 13.4-21.07 22.98-30.64 7.66-7.66 21.07-11.5 26.81-22.99 7.66-13.41 0-28.73-7.66-40.22-9.58-13.41-24.9-19.15-40.22-22.98-22.98 0-47.88-22.99-34.47-45.97 13.4-19.16 22.98-21.07 22.98-47.89l3.83-30.64c1.92-13.41 9.58-32.56 0-42.14-28.73-15.32-40.22-26.81-44.05-59.38-9.58-36.39-5.74-70.86-5.74-107.25 9.57-32.57-22.99-34.48-7.67-63.211 17.24-34.476 51.71-55.545 70.87-86.191 28.73-40.222 45.96-88.106 76.61-126.413 34.47-40.222 47.88-93.852 63.2-143.651 17.23-53.629 36.39-116.836 3.83-170.466-55.54-95.767-172.37-149.397-281.54-143.651-38.302 1.916-72.776 21.069-109.164 34.476-17.237 5.747-36.389-1.915-53.626 5.747-38.304 17.238-55.541 57.46-76.608 91.936-22.983 26.815-38.305 61.291-49.796 95.768-15.321 42.137-44.049 76.614-59.371 118.751-19.152 47.884-24.898 109.175 3.83 155.143 5.746 11.492 13.407 22.984 22.983 30.646l24.897 21.069c11.492 19.153 13.407 42.137 30.644 57.46 72.777 34.476 63.201 0 70.862 90.017 0 22.99 7.661 45.97 0 68.96-15.321 26.81-44.049 42.13-70.862 55.54-28.728 15.32-59.372 26.82-91.93 38.31-13.407 7.66-24.898 21.07-40.219 22.98-61.287 1.92-126.404-26.81-183.86 0-17.237 7.66-32.559 28.73-22.983 45.97zm-7.661 722.09c36.389 40.22 107.252-13.41 93.846-61.29-13.407-32.56-55.541-28.73-82.354-34.48-11.492-3.83-5.746 24.9-7.661 30.65-3.831 13.4-3.831 26.81-3.831 38.3 0 9.58-3.83 19.16 0 26.82zm0 1348.4c9.576 36.39 22.983 72.79 15.322 109.18-1.915 22.98-11.491 45.97-7.661 68.95 7.661 47.88 32.559 97.68 72.778 128.33 19.152 28.73 49.795 42.14 76.608 63.2 13.407 5.75 21.068 19.16 30.644 28.74l45.964 28.73c30.644 15.32 65.117 34.47 97.676 17.23 17.237-13.4 36.389-21.07 49.795-38.3 13.407-21.07 22.983-47.89 34.474-70.87 9.576-21.07 21.067-42.14 26.813-65.12 9.576-24.9-5.746-47.89-13.407-70.87-1.915-26.82 3.831-51.72 0-76.62 3.831-22.98 11.492-47.88 22.983-67.03 11.491-22.99 28.728-42.14 24.898-68.95-1.916-45.97-28.729-84.28-53.626-122.59l-19.152-34.47c-9.576-24.9-11.491-51.72-17.237-78.53-11.491-44.06-42.135-36.39-70.863-13.41A453.899 453.899 0 00572.12 3187.8c-17.237 21.07-30.643 45.97-53.626 59.38-32.558 28.73-78.523 5.74-101.506 38.3-9.576 13.41-21.067 26.82-19.152 45.97z" stroke="#fff" stroke-width="1.7" stroke-miterlimit="10" stroke-dasharray="20.47 20.47"/><path d="M-35.257 3126.8c40.204 21.07 61.264 53.62 112.954 40.22 45.948-9.58 61.263-28.73 82.323-67.03a124.5 124.5 0 0022.473-66.19 124.513 124.513 0 00-16.73-67.87c-28.717-45.96-70.836-95.75-126.355-105.33-22.974-1.91-40.204 17.24-57.434 30.64m38.29-266.19l36.374 13.4c40.204 17.24 72.75 44.05 109.125 65.12 28.717 19.15 55.52 44.04 82.322 65.11 28.717 26.81 72.75 44.05 88.066 82.35 7.658 21.06 28.717 30.64 45.947 44.04 45.947 51.71 47.862-24.89 42.119-57.45-9.573-38.3 9.572-72.77 5.743-109.16-11.487-63.2-24.888-78.52-9.572-147.46 9.572-44.05 19.144-88.09 34.46-130.23 13.401-34.47 47.862-74.68 19.145-111.07-30.632-47.88-78.494 7.66-107.211 30.64-26.802 21.07-53.605 38.3-84.236 53.62-78.494 47.88-97.638 44.05-183.79 49.8-55.52 1.91-45.947 24.89-86.15 32.55M-41 4310.32c30.632 28.73 59.349 67.03 45.947 111.08m671.98 76.6c28.717-24.9 59.348-76.6 24.888-107.24-17.23-19.16-28.717-42.14-44.033-61.29-9.572-13.4-15.316-32.55-30.632-34.47-26.802-5.74-55.519-1.91-78.493-15.32-17.23-5.74-30.631-13.41-45.947-21.07-26.803-9.57-61.263-30.64-45.948-63.19 13.402-22.98 38.29-34.47 49.777-57.46 9.572-13.4 28.717-19.15 32.546-34.47 0-32.55-19.145-70.86-51.691-76.6-15.316-3.83-30.632 1.91-45.947 1.91l-40.204-5.74c-24.888 1.91-47.862 13.4-70.836 7.66-36.375-7.66-51.69-53.62-89.98-44.05-36.375 3.83-67.006 24.9-91.894 51.71-17.231 24.9-26.803 57.45-42.119 82.35-26.802 42.13-63.177 76.6-103.381 103.41M1191.92-35.005c5.74 38.301 42.12 63.197 72.75 80.433 26.8 13.406 59.35 9.576 89.98 3.83 28.72-5.745 59.35-7.66 84.24-21.066 38.29-24.896 55.52-78.518 22.97-114.905-34.46-34.471-44.03-76.603-99.55-90.009-38.29-9.575-86.15-3.83-114.87 24.896-34.46 28.727-61.26 72.774-55.52 116.82zM422.302 1259.59c22.974 32.56 67.007 9.58 99.553 15.32 19.144 3.83 36.375 11.49 53.605 19.15 53.605 11.49 107.21 32.56 153.157 61.29 63.178 45.96 36.375 135.97 112.954 170.44 42.119 26.81 99.553 19.15 134.013 59.37 13.402 13.4 24.886 32.55 45.946 36.38 28.72 7.66 42.12-26.81 53.61-45.96 15.31-22.98 34.46-45.96 53.6-65.11 11.49-9.58 17.23-24.9 26.8-36.39 24.89-17.23 24.89-40.22 3.83-59.37-19.14-17.23-47.86-13.4-61.26-36.38-15.32-19.15 3.83-44.05 9.57-63.2 5.75-19.15 7.66-42.13-3.83-57.45-11.48-13.41-15.31-30.64-22.97-44.05-5.74-15.32-3.83-30.64-5.74-44.05-7.66-51.7-17.23-78.52-47.86-120.65-17.24-57.45 49.77-101.497 84.23-139.799 26.8-26.811 42.12-67.028 68.92-95.754 21.06-28.726 45.95-49.792 63.18-80.433 22.97-51.708 36.38-105.33 45.95-157.037 21.06-97.67-61.27-178.103-143.59-208.745-55.52-22.981-114.87-36.386-172.3-19.15-26.803 5.745-49.776 22.981-74.665 30.641-51.69 1.915-53.605-1.915-86.151 44.047l-55.519 84.264c-13.402 26.811-22.974 57.452-36.375 82.348-36.375 65.113-82.323 139.801-55.52 214.49 7.658 19.15 19.145 34.471 32.546 47.877 7.658 9.575 21.059 13.405 26.803 24.896 13.401 15.321 13.401 42.132 28.717 55.537 13.401 7.661 28.717 7.661 40.204 11.491 42.118 7.66 28.717 57.457 36.374 86.177 1.915 21.07 13.402 36.39 11.487 57.45-5.743 47.88-63.177 61.29-99.552 82.35l-80.408 30.64c-17.23 11.49-30.632 30.65-51.691 32.56l-95.723-3.83c-21.059-1.91-40.204-9.57-61.263-5.74-19.145 1.91-42.119 17.23-30.632 36.38zm0 699.01c15.316 30.64 59.349-5.75 47.862-32.56-7.658-13.4-26.803-24.89-42.118-17.23-13.402 11.49-11.487 34.47-5.744 49.79zm-7.658 1398.01c3.829 21.07 9.573 42.13 9.573 63.2-1.915 28.72-5.744 55.53-3.829 82.35 3.829 42.13 26.802 76.6 55.519 103.41 13.402 19.15 30.632 30.64 47.862 44.05 30.632 22.98 63.178 42.13 91.895 68.94 24.888 22.98 63.177 38.3 95.723 26.81 19.145-5.74 38.29-5.74 51.691-21.06 17.23-15.32 21.059-38.31 30.631-57.46 11.487-22.98 26.803-42.13 30.632-65.11 11.487-44.05-26.803-57.45-11.487-95.75 3.829-11.49 3.829-22.98 1.915-34.48-3.829-36.38 17.23-70.85 28.717-105.33 22.973-44.04 11.487-93.83-15.316-134.05l-38.29-72.77c-7.657-21.07-9.572-44.05-19.144-63.2-9.573-22.98-21.059-26.81-42.119-13.41l-51.69 22.98c-13.402 7.66-24.888 19.15-34.461 28.73-13.401 9.58-24.888 17.24-34.46 30.64l-47.862 57.45c-11.487 13.41-19.145 26.81-32.546 34.48-15.316 9.57-30.632 17.23-47.862 21.06-11.487 1.92-22.973-1.91-34.46 3.83-28.717 11.49-38.29 45.96-30.632 74.69z" stroke="#fff" stroke-width="2" stroke-miterlimit="10"/><path d="M-31.291 3111.22l34.472 24.9c40.217 34.48 109.161 19.15 135.973-26.81 19.151-28.73 40.217-65.12 30.642-101.52-9.576-42.13-42.133-72.78-72.775-103.42-34.472-32.56-65.114-51.72-103.416-9.58M640.914 4496c26.812-13.41 47.878-36.39 44.048-65.12-1.915-21.07-19.151-36.39-26.812-53.63-28.727-67.04-61.283-49.8-114.907-76.61-17.236-7.66-32.557-21.07-49.793-30.65-24.896-13.41-59.368-26.81-57.453-59.37-5.746-38.31 38.302-47.89 55.538-74.7 9.576-17.24 38.302-26.82 26.812-49.8-7.661-30.64-42.133-38.31-68.944-36.39-17.236 0-34.472-3.83-51.708-1.92-36.388 7.67-55.539 24.9-91.926 0-17.236-9.57-28.727-24.89-45.963-32.56-28.727-13.4-61.283 0-82.35 19.16-32.557 30.64-44.047 76.61-72.774 111.09-21.066 26.81-44.048 49.79-70.86 70.86-19.15 13.41-42.132 22.99-57.453 42.14-40.217 45.97 49.793 72.78 45.963 143.65 0 34.47-21.066 61.29-40.218 88.1M1203.96-26.076c19.15 47.883 74.69 78.528 126.4 70.867 32.55-7.661 67.02-9.577 97.67-21.069 45.96-26.814 63.2-68.951 24.89-111.088-13.4-13.408-21.06-28.73-30.64-42.137a120.637 120.637 0 00-112.99-44.053c-63.2 11.492-122.57 82.359-105.33 147.48zM596.867 1272.51c19.151 19.16 42.132 21.07 65.114 30.65 42.132 21.07 91.925 45.97 111.076 91.93 15.321 36.39 22.982 78.53 55.539 103.43 22.981 17.24 51.708 28.73 78.519 36.39 22.982 5.75 45.963 9.58 65.114 24.9 42.131 32.56 61.281 67.04 93.841 0 21.07-17.24 36.39-40.22 55.54-59.37 11.49-15.33 19.15-32.56 30.64-45.97 9.58-17.24-1.91-38.31-17.24-44.05-24.89-9.58-59.36-22.99-53.62-53.63l9.58-42.14c1.91-21.07-1.92-44.05-13.41-61.29l-15.32-44.05-7.66-59.38c-5.75-32.56-26.81-49.8-44.05-76.61-9.57-11.49-7.66-26.82-11.489-38.31-9.576-17.24 1.919-34.47 11.489-47.881 17.24-26.814 42.13-47.883 63.2-70.867 22.98-24.899 44.05-53.629 61.28-82.358 28.73-40.222 70.86-67.037 95.76-109.174 22.98-40.221 32.56-88.105 42.13-134.072 28.73-101.512-42.13-181.956-134.06-212.601-82.35-34.476-143.629-38.307-222.149 5.746-49.793 17.238-55.538-5.746-95.756 47.883-15.321 30.645-36.387 57.46-53.623 88.105-13.406 22.984-21.066 49.798-34.472 72.782-28.727 53.629-63.199 109.173-61.284 170.464 0 32.56 13.406 61.29 36.387 82.359 13.406 11.491 28.727 19.153 36.388 34.475 11.49 13.408 5.745 32.561 19.151 44.053 30.642 7.661 65.114 11.492 72.774 47.883l5.745 38.303 7.661 19.16c0 28.73 32.557 30.64 38.302 51.71 0 22.98-22.981 34.48-36.387 47.88-11.491 9.58-24.896 13.41-36.387 22.99-9.576 7.66-22.982 7.66-32.557 9.57-17.236 9.58-34.472 19.16-53.623 24.9-21.067 9.58-47.878 13.41-65.114 28.73-7.661 9.58-13.406 19.16-22.982 26.82-7.66 7.66-15.321 11.49-24.896 15.32-7.661 3.83-28.727 1.92-19.151 15.32zm-147.464-21.07c5.745 0 3.83-1.91 0-3.83-1.915 1.92-3.83 1.92 0 3.83zm-22.982 2108.77c13.406 57.46-3.83 120.67 19.151 176.21 5.746 17.24 21.067 26.82 34.473 38.31 9.575 13.41 19.151 28.73 30.641 40.22 13.406 15.32 30.642 22.99 44.048 36.39 28.727 21.07 57.453 40.22 91.926 49.8 34.472 3.83 72.774 17.24 105.331 0 13.406-7.66 13.406-24.9 19.151-36.39 9.576-32.56 36.387-42.14 38.302-76.61 7.661-21.07-13.405-34.48-13.405-53.63-1.916-15.32 5.745-30.65 7.66-45.97v-40.22c5.745-22.99 17.236-45.97 21.066-68.95 5.746-22.99 15.321-44.06 15.321-67.04 1.915-26.81-9.575-49.8-22.981-72.78l-32.557-70.87c-9.576-19.15-15.321-59.37-38.302-65.12-34.473 0-68.945 17.24-95.756 40.22-49.793 32.56-72.775 93.85-122.568 126.41-47.877 34.48-111.076 5.75-101.501 90.02zm-453.882-785.28c5.745 13.41 22.981 15.32 34.472 24.9 15.32 19.15 40.217 22.98 63.199 32.56 34.472 15.32 65.114 38.31 99.586 57.46 40.217 26.82 74.689 63.21 118.737 84.28 34.472 17.23 76.605 34.47 99.586-5.75 38.302-36.39 11.491-90.02 15.321-135.99 5.745-53.63 19.151-105.34 32.557-157.05l22.981-86.19c5.746-21.07-15.321-42.14-36.387-32.56-26.812 7.66-47.878 28.72-72.774 42.13-47.878 26.82-93.841 57.46-145.549 74.7-45.963 17.24-99.586-3.83-143.634 17.24-15.32 13.4-30.642 26.81-51.708 30.64-34.472 1.92-42.132 21.07-36.387 53.63z" stroke="#fff" stroke-width="2" stroke-miterlimit="10"/><path d="M2.637 3121.33c28.727 32.56 82.35 28.73 111.077 0 24.897-26.81 49.793-63.2 45.963-103.43-5.745-34.47-32.557-59.37-55.538-84.27-22.982-21.07-49.793-67.04-86.18-47.89-13.407 5.75-21.067 17.24-32.558 26.82m651.14 1524.62c-5.745-13.4-15.321-24.89-19.151-38.3-7.661-38.31-19.151-40.22-53.623-55.55-30.642-17.24-57.454-38.31-86.181-59.37-28.726-17.24-59.368-36.4-63.198-74.7-3.831-24.9 1.915-49.8 26.811-63.21 9.576-7.66 11.491-22.98-7.66-21.07-7.661-1.91-13.406-7.66-19.151-7.66-15.321 3.83-28.727 9.58-45.963 9.58-28.727 3.83-53.624-21.07-70.86-42.14-34.472-38.31-74.689-74.7-118.737-24.9-22.981 26.81-34.472 57.46-57.453 84.27-30.642 42.14-72.775 74.7-112.992 105.35-40.218 26.81-26.812 47.88 0 80.44 28.726 44.06 42.132 86.2 11.49 134.08M1209.16-33.265c15.32 44.053 63.2 74.699 109.16 68.953 34.48-3.83 70.86-5.746 103.42-19.154 38.3-24.9 61.28-49.799 28.73-93.852-15.32-13.408-24.9-30.646-36.39-47.884-24.9-22.985-59.37-42.138-95.76-38.308-61.28 5.747-118.73 67.038-109.16 130.245zM684.419 780.763c3.83 42.138 42.133 61.291 68.944 88.106 30.642 40.223 0 32.562 57.454 53.63 55.538 32.562 34.472 88.111 65.114 91.941 59.369 5.74 95.756-21.072 135.969-63.21 44.05-40.223 78.52-90.022 113-139.821 34.47-45.969 93.84-67.038 111.07-126.414 65.12-199.198 13.41-268.151-183.85-319.865-47.88-9.577-93.839 9.577-135.972 30.646-19.151 5.746-38.302 5.746-55.538 15.322-22.981 13.408-36.387 40.223-47.878 61.292-13.406 21.069-28.727 40.222-38.302 61.291-32.557 82.361-101.501 155.145-90.011 247.082zm-17.236 492.247c7.661 19.15 28.727 28.73 44.048 40.22 21.066 17.24 44.048 32.56 59.368 53.63 19.152 34.48 24.897 76.62 49.794 107.26 17.236 22.99 45.962 30.65 72.774 36.39 21.066 9.58 40.217 17.24 61.284 22.99 22.981 7.66 47.879 28.73 70.859 21.07 13.41-11.49 28.73-17.24 44.05-26.82 32.55-19.15 49.79-51.71 65.11-84.27 17.24-34.48-57.45-32.56-65.11-72.79-1.92-19.15 3.83-38.3 5.74-55.54 1.92-28.73-9.57-53.63-19.15-78.53-15.32-34.48-9.57-74.7-34.47-105.35-26.812-38.3-59.369-28.73-95.756-11.49-21.066 13.41-42.133 21.07-63.199 30.65-13.406 9.57-28.727 3.83-42.132 11.49-9.576 5.75-22.982 5.75-34.473 9.58l-40.217 19.15c-22.981 11.49-51.708 19.15-67.029 40.22-5.746 13.41-15.321 26.82-11.491 42.14zM458.435 4113.49c7.661 7.66 24.897-3.83 22.982-13.41-7.661-19.15-30.642-3.83-22.982 13.41zm-19.151-733.58c9.576 53.63-3.83 114.92 28.727 160.89 13.406 15.32 30.642 26.81 38.302 45.97 17.236 19.15 36.387 38.3 59.369 51.71 22.981 15.32 44.048 42.14 74.689 38.31 28.727 0 57.454-15.33 78.52-36.39 13.406-5.75 24.897-15.33 34.472-28.74l21.067-19.15c11.49-19.15 5.745-42.14 5.745-61.29 1.915-22.98 9.576-45.97 9.576-68.95 0-21.07 11.49-38.31 17.236-57.46 5.745-40.23 19.151-80.45 15.321-120.67-3.831-15.32-15.321-28.73-21.067-44.06-7.66-19.15-11.49-40.22-21.066-57.46-9.576-22.98-19.151-47.88-42.133-57.46-42.132-5.74-78.519 26.82-109.161 53.63-28.727 22.99-45.963 59.38-74.69 86.19-47.878 53.63-134.058 15.33-114.907 114.93zM6.468 2563.96c7.66 15.33 19.15 26.82 30.641 38.31 15.321 11.49 36.388 19.15 53.624 28.73 30.642 15.32 57.453 34.48 86.18 49.8 53.623 36.39 166.615 141.74 210.663 44.05 11.491-32.56 0-68.95 7.66-103.43l26.812-135.99c3.83-32.56 30.642-116.83-30.642-91.93-67.029 30.64-128.313 72.78-197.257 95.76-36.387 9.58-74.689-3.83-112.992 1.92-15.32 1.91-24.896 15.32-36.387 24.9l-21.066 21.07c-9.576 7.66-24.897 13.41-17.236 26.81z" stroke="#fff" stroke-width="1.7" stroke-miterlimit="10"/><path d="M-18.59 3088.22c21.075 11.49 32.57 36.39 55.559 40.22 57.474 19.15 120.696-61.28 109.201-114.9-7.663-30.64-34.485-51.71-55.558-74.69-19.158-19.15-40.232-59.36-70.885-45.96-11.495 5.75-17.242 15.32-24.906 22.98l-26.82 24.9m605.393 1503.27c-19.158-17.24-45.979-15.32-63.222-32.56-13.41-15.31-28.737-34.46-32.568-53.61-3.832-13.41 1.916-26.81-3.832-38.3-9.579-11.49-22.99-21.07-30.653-32.56l-26.821-24.89c-11.495-13.41-11.495-32.56-24.905-44.05-13.411-26.81-36.401-19.15-61.306-30.64-55.558-17.23-55.558-126.39-118.78-122.56-21.074 5.75-30.653 26.81-44.063 42.13-21.074 26.81-42.148 55.54-65.138 78.52-21.074 22.98-44.063 38.3-67.053 57.45-19.158 15.32-40.232 36.38-24.905 61.28 19.158 36.38 55.558 72.77 45.979 118.72-3.832 24.9-21.074 47.88-36.4 67.03M1220.94-31.31c3.83 13.405 17.24 22.98 26.82 34.47 21.07 26.81 57.47 22.98 88.12 19.15 26.83-1.915 53.65-3.83 78.55-13.405l34.49-26.81c24.9-22.98-7.67-53.62-22.99-72.77-13.41-24.894-19.16-32.554-45.98-45.959-42.15-28.725-107.29-19.15-136.02 24.895-21.08 24.895-30.66 47.875-22.99 80.43zM707.5 1278.55c5.748 17.23 22.99 26.81 34.485 38.3l17.242 19.15c9.579 7.66 19.158 13.4 22.99 22.98 9.579 19.15 15.326 40.21 21.073 61.28 9.579 15.32 17.243 32.55 28.737 45.96 17.243 21.06 45.98 22.98 70.885 28.72 26.821 15.32 55.558 26.81 86.211 30.64 22.987 3.83 36.397-17.23 57.477-22.98 38.31-9.57 28.73-5.74 44.06-40.21 15.33-15.32 32.57-26.81 9.58-44.05-13.41-15.32-36.4-21.06-42.15-42.13-3.83-15.32 0-32.55 1.92-47.87 5.75-34.47-7.67-65.11-21.08-95.75-15.32-30.64-13.41-76.6-49.807-88.09-38.316-11.49-70.884 24.89-107.285 19.15-17.242 3.83-32.568 5.74-49.811 3.83-22.989 3.83-44.063 11.49-61.305 22.98-19.158 11.49-45.98 21.06-57.474 40.21-3.832 15.32-9.579 32.56-5.748 47.88zm-9.579-495.986c3.832 36.385 38.316 49.79 59.39 72.77 13.411 11.49 22.99 26.81 34.485 40.215 13.41 11.49 32.568 17.235 45.979 30.64 19.158 17.235 28.737 44.045 53.642 53.62 72.801 9.575 141.773-67.025 178.173-122.56 63.22-126.389 122.61-88.09 155.18-183.839 61.3-189.585 9.58-247.035-176.26-294.91-42.14-9.575-84.292 7.66-122.608 24.895-19.158 7.66-40.232 9.575-57.474 21.065-40.232 24.895-49.811 74.685-78.548 109.155-34.485 82.345-101.538 157.03-91.959 248.949zM448.867 3369.73c9.579 47.87 1.916 101.49 22.989 147.45 5.748 13.41 17.243 26.81 30.653 36.39 7.663 7.66 11.495 19.15 17.242 26.81 22.99 22.98 45.98 44.04 72.801 61.28 7.663 5.74 15.326 17.23 26.821 19.15 19.158 5.74 34.485-7.66 47.895-17.24l38.316-26.81c11.495-9.57 26.822-17.23 36.401-28.72 19.158-24.9 24.905-53.62 26.821-82.35 5.747-36.38 17.242-72.77 26.821-109.15 1.916-38.3 11.495-74.69 9.579-112.99-3.831-15.32-17.242-26.81-19.158-44.04-7.663-19.15-5.747-40.22-15.326-55.54-22.99-57.45-63.222-47.87-105.37-15.32-21.073 15.32-44.063 30.64-59.389 51.71-19.158 26.81-36.401 53.62-63.222 70.85-40.232 22.98-97.706 17.24-93.874 78.52zM38.885 2567.34c11.495 34.47 53.642 45.96 80.464 65.11 28.737 13.41 53.642 32.56 80.463 49.79 24.906 15.32 45.98 34.47 72.801 47.88 34.484 17.23 80.464 22.98 99.622-22.98 17.242-34.47 5.747-74.69 15.326-112.99 5.747-13.4 5.747-28.72 9.579-44.04 5.747-24.9 11.495-51.71 13.411-78.52 11.495-70.85-34.485-55.53-80.464-32.55l-78.548 38.3c-21.074 9.57-42.148 22.98-65.137 24.89-38.316 11.49-88.127-17.23-122.612 11.49-13.41 13.41-30.653 34.47-24.905 53.62z" stroke="#fff" stroke-width="1.7" stroke-miterlimit="10"/><path d="M-4.365 3075.11c17.232 13.4 24.89 40.21 47.866 42.13 17.232 1.91 36.378 0 47.866-15.32 22.976-21.07 51.696-53.62 40.208-86.18-7.658-28.73-34.464-42.13-49.78-63.2-17.233-13.4-28.72-51.7-51.697-51.7-13.402 0-19.146 13.4-26.805 22.98l-21.061 19.15c-7.659 7.66-11.488 21.06-17.232 30.64M414.944 4475c-17.232-26.81-28.72-55.54-44.037-80.43l-28.72-40.22c-13.402-15.32-24.89-34.47-15.317-53.62 21.061-34.47-22.976-47.87-38.293-70.85-9.573-13.41-17.232-30.65-24.891-45.97-11.488-15.32-17.232-34.47-24.89-51.7-24.891-57.45-74.672 9.57-95.733 36.38-11.488 11.49-26.805 19.15-34.464 34.47-9.573 15.32-26.805 21.07-38.293 32.56-40.208 42.13-51.696 45.96-17.232 99.58 24.89 40.22 47.867 65.11 26.805 112.99M1234.42-33.001c3.83 9.575 13.4 13.405 19.14 21.065 7.66 11.49 17.24 22.98 30.64 22.98 19.14 1.915 38.29 0 55.52-1.915 24.89-1.915 53.61-5.745 76.59-17.235 30.63-21.065 40.21-24.895 11.49-57.451-13.41-17.235-19.15-42.131-40.21-51.706-26.81-15.32-57.44-26.811-88.07-17.235-21.07 3.83-42.13 11.49-47.87 32.555-15.32 22.98-26.81 42.131-17.23 68.942zM738.521 1269.22c7.659 13.41 19.147 24.9 30.635 36.39 7.658 9.58 15.317 19.15 24.89 22.98 13.403 11.49 5.744 28.73 11.488 42.13l13.403 44.05 21.061 40.21c15.317 22.98 45.951 15.32 67.013 22.98 28.72 9.58 40.207 24.9 74.671 24.9 17.232 1.91 26.808-11.49 38.298-19.15 9.57-7.66 21.06-9.58 30.63-17.24l15.32-26.81c13.4-9.57 21.06-19.15 0-22.98-22.98-3.83-24.89-38.3-24.89-57.45 3.83-21.06 5.74-42.13 5.74-65.11-5.74-21.06-22.98-40.22-30.63-61.28-9.58-38.3-24.894-65.11-68.932-51.71-22.975 5.75-44.037 5.75-65.098-3.83l-65.098 1.92c-19.147 0-28.72 13.4-42.123 22.98-24.89 13.4-45.951 38.3-36.378 67.02zm-22.976-482.585c5.744 26.811 34.464 36.386 49.781 55.536l38.293 40.216 38.293 24.896c17.232 17.235 36.379 38.3 61.269 42.13 57.44 9.576 103.389-36.385 134.029-78.516 17.23-21.066 24.89-47.876 38.29-70.856 13.4-19.151 32.55-36.386 49.78-51.707 21.06-13.405 49.78-19.15 63.19-40.215 26.8-42.131 36.37-91.922 42.12-139.798 7.66-36.386-1.92-76.602-26.81-103.412-30.63-28.726-74.67-45.961-112.96-57.451-38.3-15.321-78.5-22.981-116.796-7.661-17.232 5.745-30.635 17.236-47.867 19.151-28.72 3.83-53.61 19.15-72.757 40.216-13.402 19.15-21.061 42.13-32.549 61.281-19.146 26.81-30.634 53.621-44.037 82.346l-19.146 26.811-17.232 38.301c-15.318 38.301-28.72 78.516-24.891 118.732zM466.64 3385.34l9.573 72.77c1.915 19.15 1.915 38.31 13.403 53.63 7.658 13.4 19.146 22.98 28.72 36.38 7.658 13.41 15.317 28.73 30.634 36.39 26.805 17.23 45.952 45.96 74.672 57.45 26.805 0 42.122-26.81 61.269-40.22 36.378-21.06 45.951-19.15 59.354-65.11 3.829-19.15 3.829-38.3 9.573-57.45 9.573-21.07 17.232-42.13 22.976-65.11 5.744-21.07 1.915-44.05 1.915-65.11 0-19.15 1.914-38.3-5.744-57.45-11.488-22.98-13.403-40.22-13.403-65.12 3.829-17.23 7.659-32.55-9.573-44.04-17.232-24.9-44.037-17.24-65.098 0l-38.294 24.89c-44.037 26.82-32.549 36.39-61.269 67.03-19.146 22.98-44.037 34.47-70.842 44.05-34.464 5.74-55.525 32.55-47.866 67.02zM64.562 2565.71c5.744 17.23 22.976 26.81 38.293 36.38 13.403 13.41 32.549 21.07 49.781 30.64 24.891 13.41 44.037 34.47 68.928 45.96 13.403 7.66 24.89 21.07 36.378 26.81 28.72 11.49 65.099 22.98 91.904 1.92 13.402-17.24 15.317-42.13 17.232-61.28 1.914-22.98 5.744-45.96 11.488-67.03l9.573-67.02c7.659-28.73 11.488-78.52-30.634-67.03-26.806 7.66-47.867 24.89-72.757 34.47-17.232 5.74-34.464 11.49-47.867 22.98-15.317 7.66-32.549 13.41-49.781 15.32-32.549 5.75-63.183-5.74-91.903-1.91-24.89 1.91-42.123 28.72-30.635 49.79z" stroke="#fff" stroke-miterlimit="10"/><path d="M1271.22-89.211c3.83 9.576 15.33 5.745 22.99 7.66l-3.83 11.492c0 7.661 9.58 7.661 13.41 3.83 3.83-7.66-1.91-15.321 5.75-21.067 19.16-21.068-47.9-42.135-38.32-1.915zM1135.2 653.904c19.16 11.491 13.41 42.135 32.57 19.152 11.49-11.491-3.83-30.644-17.24-30.644-5.75 1.915-19.16 3.831-15.33 11.492zM974.271 477.701c15.327 3.831 32.569-1.915 45.979 3.831 11.5 3.83 22.99 1.915 34.49 0 11.49 0 24.9 1.915 32.56-9.577-11.49-13.406-53.64-17.237-70.88-13.406-11.5 3.83-22.991 0-30.654 3.83-5.747 3.831-17.242 9.576-11.495 15.322zm-11.495 199.186c22.99 13.406 59.394 19.152 59.394-7.661 0-17.238-36.404-32.56-49.815-30.644-30.653 1.915-32.568 24.898-9.579 38.305zm-103.454-80.441c5.748 3.831 9.579-3.83 9.579-7.661-3.831-19.152-19.158-3.83-9.579 7.661zm-21.074 59.373c5.748 5.746 13.411 0 7.664-5.746-5.748-5.746-11.495 0-7.664 5.746zm3.832 610.961c3.832 5.75 13.411 7.66 21.074 9.58 21.074-7.66 21.074-24.9 49.811-5.75 19.158 9.58 5.748-19.15-9.579-17.23l-22.99 1.91c-13.41-1.91-42.148-9.58-38.316 11.49zm-68.969-582.232c13.411 11.491 26.821-3.831 13.411-13.407-9.58-7.661-21.074 5.746-13.411 13.407zm-9.579 128.321c13.41 11.491 30.653 42.135 40.232 11.491 5.747-7.661 1.916-17.237-5.748-19.152-7.663 1.915-13.41 0-17.242-5.746-9.579 0-24.905 1.915-17.242 13.407zM736.71 3421.43c3.832 0 11.495-9.57 11.495-11.49 1.916-3.83 1.916-11.49-1.916-15.32-7.663-9.58-11.495 5.74-13.41 13.41l1.915 13.4h1.916zm-53.642 95.76c0 9.58 0 17.24 5.747 22.99 9.579 9.57 19.158-7.66 21.074-15.32l-1.916-17.24c-1.916-3.83 1.916-22.99-5.747-22.99l-5.748 3.84c-5.747 7.66-11.495 19.15-13.41 28.72zm-45.98-93.84h5.747c1.916-3.83 0-7.66-3.831-3.83l-1.916 3.83zm-113.033 3.83c3.832 1.91 21.074-5.75 28.737 11.49 3.832 7.66 19.158 3.83 24.906 1.91 9.579-3.83 11.495-13.4 3.831-17.23l-28.737-11.49-17.242 3.83c-3.832 1.91-15.327 9.57-11.495 11.49zm-26.821-51.71c7.663 13.4 21.074-1.92 22.989-11.5 3.832-11.49-9.579-13.4-17.242-7.66-5.747 3.83-9.579 11.5-5.747 19.16zm-191.582-739.29c1.916 5.75 5.748 17.24 11.495 15.32 7.663-1.91 5.748-15.32 5.748-21.06l1.915-32.56c0-5.75-1.915-30.65-9.579-26.82-7.663 1.92-9.579 19.16-9.579 22.99-1.915 13.4-3.831 28.72 0 42.13zm-172.423-65.12c5.748 7.66 40.232 17.24 38.316 0l-5.747-7.66c-5.747-1.91-38.316-5.74-32.569 5.75v1.91zm-42.148 474.98c5.748 3.83 13.411-3.83 15.327-7.66 11.495-21.06-24.906-32.56-15.327 7.66zm-47.895 24.9c7.663 11.49 17.242-3.83 17.242-11.49-7.663-11.49-24.905-1.91-17.242 11.49zm-61.306-53.62c9.579 1.91 7.663-3.84 21.074 0 13.41-3.84 1.916-22.99-3.832-28.73-7.663 1.91-3.831 13.4-5.747 19.15-5.748 1.91-15.327 1.91-11.495 9.58z" stroke="#fff" stroke-width="1.1" stroke-miterlimit="10"/><path transform="rotate(90 1605 825)" fill="url(#paint0_linear_53_188)" d="M1605 825h1142v1639H1605z"/><path transform="rotate(-90 -34 3168)" fill="url(#paint1_linear_53_188)" d="M-34 3168h1206v1639H-34z"/></g><defs><linearGradient id="paint0_linear_53_188" x1="2709.03" y1="1649.24" x2="1721.83" y2="1649.24" gradientUnits="userSpaceOnUse"><stop stop-color="#0F1833"/><stop offset="1" stop-color="#0F1833" stop-opacity="0"/></linearGradient><linearGradient id="paint1_linear_53_188" x1="1131.9" y1="3992.24" x2="89.376" y2="3992.24" gradientUnits="userSpaceOnUse"><stop stop-color="#0F1833"/><stop offset="1" stop-color="#0F1833" stop-opacity="0"/></linearGradient><clipPath id="clip0_53_188"><path fill="#fff" d="M0 0h1600v3995H0z"/></clipPath></defs></svg>