<svg width="92" height="92" fill="none" xmlns="http://www.w3.org/2000/svg"><path opacity=".1" d="M76.565 34.875a32.528 32.528 0 01-3.6 29.314L46 45.999l30.565-11.124zm-61.13 22.25a32.528 32.528 0 013.6-29.314L46 46.002 15.435 57.124z" fill="#E3A634"/><path fill-rule="evenodd" clip-rule="evenodd" d="M49.25 57.705c4.097-2.764 7-9.65 7-17.705 0-10.493-4.925-19-11-19s-11 8.507-11 19c0 8.056 2.903 14.94 7 17.705V81l-11 7v4l11-5h8l11 5v-4l-11-7V57.705z" fill="#E3A634"/><rect x="21.811" y="21" width="69.784" height="3.621" rx="1.811" transform="rotate(45 21.81 21)" fill="#E3A634"/><rect width="69.784" height="3.621" rx="1.811" transform="scale(-1 1) rotate(45 -59.647 -72.301)" fill="#E3A634"/></svg>