<svg width="408" height="137" fill="none" xmlns="http://www.w3.org/2000/svg"><g clip-path="url(#clip0_474_102)" fill-rule="evenodd" clip-rule="evenodd" fill="#fff"><path d="M219.04 103.375c.37-.12.77-.32 1.11-.57.38-.28.7-.76.7-1.43 0-1.21-.99-2.06-2.57-2.06-.49 0-1.1.13-1.35.21-.36.09-.69.21-.98.31-.04.37-.13 1.26-.24 1.8l.38.04c.29-.9.78-1.91 1.98-1.91.88 0 1.58.57 1.58 1.76 0 1.06-.73 1.61-1.31 1.62-.34 0-.65-.13-1.05-.13-.33 0-.58.19-.58.41 0 .27.25.42.57.42.42 0 .73-.13 1.06-.13.77 0 1.61.8 1.61 2.04 0 1.66-1.11 2.14-1.88 2.12-.77-.01-1.42-.29-1.82-1.23-.13-.31-.32-.48-.5-.48-.23 0-.46.17-.46.53 0 .33.25.73.64 1.03.56.41 1.34.6 2.1.6 1.53 0 3.28-.82 3.28-2.64 0-1.46-1.03-2.1-2.24-2.28v-.04l-.03.01zm184.25.38c-10.13-.59-21.84-1.79-31.69-1.79-1.02 0-1.84.81-1.84 1.8s.82 1.8 1.84 1.8c9.83 0 21.59-1.23 31.69-1.82v.01zm-227.08 0c10.13-.59 21.84-1.79 31.69-1.79 1.02 0 1.84.81 1.84 1.8s-.82 1.8-1.84 1.8c-9.83 0-21.59-1.23-31.69-1.82v.01zm54.44 4.39v-.37c-.86-.08-1.05-.2-1.46-1.34-.85-2.31-1.74-4.84-2.56-7.11l-.41.12-2.75 6.95c-.45 1.18-.64 1.26-1.49 1.38v.37h2.89v-.37c-1.01-.09-1.11-.23-.84-1.06.17-.56.37-1.11.58-1.71h2.83c.29.81.56 1.53.73 2.04.17.52.05.62-.78.73v.37h3.26zm-3.38-3.71h-2.44c.41-1.09.82-2.26 1.25-3.38h.03l1.17 3.38h-.01zm10.33-3.04c-.07-.57-.13-1.63-.15-1.87h-5.72v.37c.97.08 1.07.13 1.07 1.29v5.31c0 1.14-.11 1.22-1.11 1.3v.36h3.53v-.36c-1.18-.08-1.29-.16-1.29-1.3v-6.02c0-.46.03-.49.54-.49h.85c.82 0 1.23.08 1.43.34.19.27.29.56.44 1.14l.4-.07h.01zm7.89 6.75v-.37c-1.01-.08-1.11-.15-1.11-1.3v-5.41c0-.99.11-1.09 1.11-1.17v-.37h-6.61v.37c1.07.07 1.29.19 1.29.88 0 2.79-.53 4.74-1.11 5.74-.36.62-.73 1.05-1.38 1.46v.25c.12.05.42.13.69.13.27 0 .6-.2.95-.66.93-1.23 1.49-3.73 1.49-7.31 0-.33.03-.38.56-.38h1.37c.5 0 .52.04.52.62v5.85c0 1.15-.11 1.22-1.1 1.3v.37h3.34-.01zm8.45-8.62h-3.2c-2.33 0-3.08 1.25-3.06 2.41.03 1.64 1.64 2.14 2.19 2.22v.03c-.42.08-.88.37-1.41 1.23-.48.82-.82 1.5-1.13 1.87-.28.33-.56.46-1.06.53v.36h.86c.76-.03 1.21-.13 1.75-1.17.42-.81.68-1.33.95-1.82.37-.62.68-.84 1.35-.84h.52v2.12c0 1.15-.12 1.22-1.09 1.3v.37h3.32v-.37c-1.01-.08-1.11-.15-1.11-1.3v-5.29c0-1.11.11-1.21 1.11-1.29v-.37l.01.01zm-2.23 4.38h-.57c-1.3 0-2.23-.56-2.27-1.94-.01-.7.32-1.98 2.07-1.99.64-.01.77.09.77.58v3.35zm12.46-4.38h-3.46v.37c1.03.09 1.14.16 1.14 1.26v2.15h-4.52v-2.15c0-1.1.11-1.18 1.11-1.26v-.37H255v.37c1.09.08 1.19.15 1.19 1.26v5.36c0 1.11-.11 1.18-1.17 1.26v.37h3.49v-.37c-1.09-.08-1.19-.16-1.19-1.26v-2.64h4.52v2.64c0 1.11-.11 1.18-1.25 1.26v.37h3.55v-.37c-1.07-.08-1.18-.15-1.18-1.26v-5.36c0-1.1.11-1.17 1.19-1.26v-.37h.02zm9.92 8.62v-.37c-1.01-.08-1.13-.15-1.13-1.29v-5.24c0-1.18.12-1.27 1.13-1.35v-.37h-2.37v.12c0 .13-.03.27-.15.45l-4.17 6.84h-.03c.05-1.31.05-2 .05-2.61v-3.24c0-1.05.13-1.11 1.13-1.19v-.37h-3.34v.37c1.01.08 1.11.16 1.11 1.21v5.29c0 1.21-.11 1.3-1.11 1.38v.37h2.33v-.15c0-.17.01-.34.12-.5l4.21-6.94h.04c-.05 1.27-.05 2.03-.05 2.47v3.46c0 1.14-.12 1.21-1.14 1.29v.37h3.37zm7.68-4.76c.37-.12.77-.32 1.11-.57.38-.28.7-.76.7-1.43 0-1.21-.99-2.06-2.57-2.06-.49 0-1.1.13-1.35.21-.36.09-.69.21-.98.31-.04.37-.13 1.26-.24 1.8l.38.04c.29-.9.78-1.91 1.98-1.91.88 0 1.58.57 1.58 1.76 0 1.06-.73 1.61-1.31 1.62-.34 0-.65-.13-1.05-.13-.33 0-.58.19-.58.41 0 .27.25.42.57.42.42 0 .73-.13 1.06-.13.77 0 1.61.8 1.61 2.04 0 1.66-1.11 2.14-1.88 2.12-.77-.01-1.42-.29-1.82-1.23-.13-.31-.32-.48-.5-.48-.23 0-.46.17-.46.53 0 .33.25.73.64 1.03.56.41 1.34.6 2.1.6 1.53 0 3.28-.82 3.28-2.64 0-1.46-1.03-2.1-2.24-2.28v-.04l-.03.01zm11.61 4.76v-.37c-.86-.08-1.05-.2-1.46-1.34-.85-2.31-1.74-4.84-2.56-7.11l-.41.12-2.75 6.95c-.45 1.18-.64 1.26-1.49 1.38v.37h2.89v-.37c-1.01-.09-1.11-.23-.84-1.06.17-.56.37-1.11.58-1.71h2.83c.29.81.56 1.53.73 2.04.17.52.05.62-.78.73v.37h3.26zm-3.38-3.71h-2.44c.41-1.09.82-2.26 1.25-3.38h.03l1.17 3.38H290zm13.09-3.04c-.07-.57-.13-1.63-.15-1.87h-5.72v.37c.97.08 1.07.13 1.07 1.29v5.31c0 1.14-.11 1.22-1.11 1.3v.36h3.53v-.36c-1.18-.08-1.29-.16-1.29-1.3v-6.02c0-.46.03-.49.54-.49h.85c.82 0 1.23.08 1.43.34.19.27.29.56.44 1.14l.4-.07h.01zm5.28-2.07c-2.8 0-4.47 2.22-4.47 4.6 0 2.56 1.91 4.42 4.31 4.42 2.4 0 4.43-1.75 4.43-4.62 0-2.67-2.03-4.4-4.27-4.4zm-.29.48c1.75 0 3.21 1.49 3.21 4.28 0 2.55-1.31 3.78-2.8 3.78-1.87 0-3.24-1.82-3.24-4.31 0-2.49 1.35-3.75 2.83-3.75zm5.76-.28v.37c.98.07 1.09.12 1.09 1.29v5.31c0 1.1-.11 1.21-1.17 1.29v.37h3.59v-.37c-1.19-.08-1.31-.15-1.31-1.27v-2.08l.98.25c.15.01.4.01.6-.01 1.3-.16 2.59-1 2.59-2.72 0-.86-.33-1.47-.85-1.87-.53-.38-1.3-.54-2.24-.54h-3.28v-.02zm2.2 1.21c0-.38.04-.54.15-.62.09-.09.37-.16.74-.16 1.09 0 2 .61 2 2.04 0 1.68-1.06 2.15-1.92 2.15-.44 0-.8-.09-.97-.16v-3.25zm14.09 7.41v-.37c-1.01-.08-1.13-.15-1.13-1.29v-5.24c0-1.18.12-1.27 1.13-1.35v-.37h-2.37v.12c0 .13-.03.27-.15.45l-4.17 6.84h-.03c.05-1.31.05-2 .05-2.61v-3.24c0-1.05.13-1.11 1.13-1.19v-.37h-3.34v.37c1.01.08 1.11.16 1.11 1.21v5.29c0 1.21-.11 1.3-1.11 1.38v.37h2.33v-.15c0-.17.01-.34.12-.5l4.21-6.94h.04c-.05 1.27-.05 2.03-.05 2.47v3.46c0 1.14-.12 1.21-1.14 1.29v.37h3.37zm4.67-4.76c.37-.12.77-.32 1.11-.57.38-.28.7-.76.7-1.43 0-1.21-1-2.06-2.57-2.06-.49 0-1.1.13-1.35.21-.36.09-.69.21-.98.31-.04.37-.13 1.26-.24 1.8l.38.04c.29-.9.78-1.91 1.98-1.91.88 0 1.58.57 1.58 1.76 0 1.06-.73 1.61-1.31 1.62-.34 0-.65-.13-1.05-.13-.33 0-.58.19-.58.41 0 .27.25.42.57.42.42 0 .73-.13 1.06-.13.77 0 1.61.8 1.61 2.04 0 1.66-1.11 2.14-1.88 2.12-.77-.01-1.42-.29-1.82-1.23-.13-.31-.32-.48-.5-.48-.23 0-.46.17-.46.53 0 .33.25.73.64 1.03.56.41 1.34.6 2.1.6 1.53 0 3.28-.82 3.28-2.64 0-1.46-1.03-2.1-2.24-2.28v-.04l-.03.01zm8-4.06c-2.8 0-4.47 2.22-4.47 4.6 0 2.56 1.91 4.42 4.31 4.42 2.4 0 4.43-1.75 4.43-4.62 0-2.67-2.03-4.4-4.27-4.4zm-.29.48c1.75 0 3.21 1.49 3.21 4.28 0 2.55-1.31 3.78-2.8 3.78-1.87 0-3.24-1.82-3.24-4.31 0-2.49 1.35-3.75 2.83-3.75zm14.82-.28h-3.46v.37c1.03.09 1.14.16 1.14 1.26v2.15h-4.52v-2.15c0-1.1.11-1.18 1.11-1.26v-.37h-3.44v.37c1.09.08 1.19.15 1.19 1.26v5.36c0 1.11-.11 1.18-1.17 1.26v.37h3.49v-.37c-1.09-.08-1.19-.16-1.19-1.26v-2.64H355v2.64c0 1.11-.11 1.18-1.25 1.26v.37h3.55v-.37c-1.07-.08-1.18-.15-1.18-1.26v-5.36c0-1.1.11-1.17 1.19-1.26v-.37h.02zm8.34 2.02c-.08-.77-.13-1.74-.15-2.35h-.28c-.2.25-.31.33-.66.33h-5.24c-.37 0-.54-.03-.73-.33h-.27c-.03.73-.09 1.59-.16 2.39h.38c.16-.58.27-.97.42-1.19.17-.29.44-.41 1.54-.41h.82v6.54c0 1.05-.11 1.18-1.31 1.26v.37h3.79v-.37c-1.25-.08-1.35-.21-1.35-1.26v-6.54h.93c1.01 0 1.22.11 1.45.42.15.21.28.54.41 1.18l.4-.04h.01zM222.3 84.285v-.65h-.83a4.13 4.13 0 01-4.13-4.06v-35.78a4.138 4.138 0 014.13-4.07h.82v-.63h-50.22v.65h.83c2.25 0 4.08 1.82 4.13 4.06v35.78a4.13 4.13 0 01-4.13 4.06h-.82v.65h19.59v-.65h-.82c-2.26 0-4.1-1.81-4.14-4.06v-8.12h-.06v-16.39h.06v-12.68c0-.18.02-.36.05-.53h20.84c.03.17.05.35.05.53v12.68h.02v16.38h-.02v8.16a4.142 4.142 0 01-4.14 4.01h-.81v.65h19.59l.01.01zm128.54-55.3c1.93 0 3.49 1.56 3.49 3.49 0 1.93-1.56 3.49-3.49 3.49-1.93 0-3.49-1.56-3.49-3.49 0-1.93 1.56-3.49 3.49-3.49zm-14.34 0c1.93 0 3.49 1.56 3.49 3.49 0 1.93-1.56 3.49-3.49 3.49-1.93 0-3.49-1.56-3.49-3.49 0-1.93 1.56-3.49 3.49-3.49zm-84.29 9.2c-15.51 0-25.39 9-25.39 23.5s9.89 23.5 25.39 23.5 25.41-9 25.41-23.5-9.9-23.5-25.41-23.5zm0 44.29c-9.1 0-14.81-7.96-14.81-20.79 0-12.83 5.7-20.79 14.81-20.79s14.81 7.96 14.81 20.79c0 12.83-5.7 20.79-14.81 20.79zm48.96-44.68l19.2 42.09c1.4 2.65 3.62 3.74 5.51 3.74h.55v.65h-20.57v-.65h.57c1.67 0 3.48-1.46 2.5-4.05l-.78-1.97-5.94-14.9-3.85-9.69-4.61 11.06-.07.16-1.94 4.65-1.13 2.71h-.01l-3.3 7.98c-1.05 2.58.81 4.06 2.47 4.06h.56v.63h-13.84v-.65h.58c1.83 0 4.06-1.08 5.43-3.64l14.92-33.74c.46-.99 3.02-6.59 3.17-8.46h.58v.02zm62.44 33.31h-.65c-2 6.4-6.19 10.42-12.63 10.42h-8.48v-18.17h8.64c3.13.1 5.4 2.41 5.39 5.53v.56h.63v-14.91h-.63v.57c.01 3.14-2.3 5.48-5.47 5.53h-8.57v-18.79h10.87c3.87.16 6.32 2.7 6.31 6.59v.76h.65v-11.28c-1.19.51-4.92 1.15-7.7 1.17h-24.75v.65h.83c2.18 0 3.98 1.7 4.12 3.85v36a4.13 4.13 0 01-4.13 4.06h-.82v.65h33.42l2.97-13.17v-.02zm43.82-33.25c-1.19.51-4.87 1.14-7.66 1.17h-25.96c-2.78-.03-6.47-.67-7.65-1.17v11.26h.65v-.77c-.01-3.93 2.5-6.49 6.46-6.59h8.68v37.93a4.13 4.13 0 01-4.13 3.95H377v.65h19.62v-.65h-.83c-2.24 0-4.07-1.79-4.13-4v-37.89h8.67c3.96.1 6.47 2.65 6.46 6.59v.76h.66v-11.24h-.02z"/></g><g clip-path="url(#clip1_474_102)" fill-rule="evenodd" clip-rule="evenodd" fill="#fff"><path d="M38.76 29.375c-.21 2.85-.34 5.54-.38 8.1 1.9-1.49 3.68-2.78 5.12-3.76 7.39-4.98 16.65-9.22 26.28-11.55-2.69-1.48-5.63-2.97-8.88-4.62 5.02.42 9.67 1.67 13.93 3.57 7.83-1.32 15.71-1.27 22.85.75-6.8 1.26-11.83 1.84-16.6 2.67 13.78 9.05 22.69 25.42 26.35 41.65.57 2.52 1.1 5.28 1.56 8.18 4.69-1.11 9.37-1.46 14.57-.38-5.6 1.5-10.07 2.86-14.02 4.28 1.13 9.09 1.33 18.96-.79 26.56-.9-5.08-.41-1.74-.94-7.53-.55-6.02-1.32-11.8-2.4-17.43-7.57 3.12-13.82 6.87-24.11 13.14-6.23 3.79-10.62 6.9-14.63 10.55 5.73 5.19 12.33 9.25 20.72 13.41l3.4 1.8c-4.19-.33-3.58-.05-7.58-1.3-7.21-2.26-13.85-6-19.75-10.78-2.4 2.48-4.81 5.29-7.55 8.73.9-4.39.4-3.85 2.87-7.85.65-1.05 1.34-2.08 2.09-3.09-14.22-12.73-23.62-31.62-25.44-49.95-.35-3.56-.55-6.49-.5-9.18-4.3 3.21-8.46 6.96-12.75 11.69l1.18-4.03c1.96-3.92 7.09-8.96 12.07-13.14.56-3.19 1.61-6.43 3.34-10.5l-.01.01zm65.76 46.26c-2.15-9.56-5.32-18.75-10-28.03-5.64-11.17-11.2-16.99-18.84-21.95-4.51 1.09-9.3 2.72-15.63 5.66-8.32 3.87-15.23 7.28-21.64 11.58.48 15.95 4.73 27.3 14.32 43.21 3.56 5.91 7.14 10.66 11.1 14.71 9.29-10.6 23.33-18.92 35.74-23.46 1.69-.62 3.34-1.2 4.97-1.72h-.02z"/><path d="M72.37 10.715l7.23-5.53-7.05-4.2 19.1 3.12-19.28 6.61zm57.75 45.97c-39.45-12.31-72.73 5.19-104.08 31.96 11.04-27.05 82.46-70.55 104.08-31.96zm-64-52.2C29.6 4.485 0 34.095 0 70.605c0 36.51 29.6 66.12 66.12 66.12s63.49-27.05 65.95-61.33c-4.55 29.12-29.74 51.39-60.14 51.39-33.62 0-60.87-27.25-60.87-60.87s27.25-60.87 60.87-60.87c1.22 0 2.42.04 3.62.11-3.08-.44-6.23-.67-9.43-.67z"/></g><defs><clipPath id="clip0_474_102"><path fill="#fff" transform="translate(172.07 28.985)" d="M0 0h235.36v79.37H0z"/></clipPath><clipPath id="clip1_474_102"><path fill="#fff" transform="translate(0 .985)" d="M0 0h132.07v135.75H0z"/></clipPath></defs></svg>