<svg width="697" height="307" fill="none" xmlns="http://www.w3.org/2000/svg"><path opacity=".3" d="M697 223.807C697 241.605 673.025 259 673.025 259l-226.086-47.666-58.436-24.15-9.58-18.296L195 116.831c41.802-1.464 87.884-2.831 129.274-2.831 48.77 0 80.501 12.363 193.495 35.442 74.117 15.139 47.028 14.635 79.662 28.26C663.339 205.219 697 207.237 697 223.807z" fill="#2A4390"/><path d="M272.062 122.726c.708-.538.415-1.663-.465-1.787l-25.47-3.593a1.033 1.033 0 00-.167-.01l-37.404 1.021h-35.295l-56.157-2.354c-.05-.002-.101 0-.151.005l-26.183 2.878c-.888.098-1.212 1.223-.511 1.778l2.83 2.243c.697.551.382 1.669-.5 1.776l-36.216 4.413h-20.62c-.218 0-.43.072-.605.204l-3.706 2.819c-.788.6-.33 1.867.659 1.81 7.902-.454 27.124-1.404 25.378.2-2.193 2.014-11.022 5.706-28.679 6.043-10.262.195-17.903 1.071-22.503 1.771-1.087.165-1.055 1.524.031 1.69l8.077 1.229c.05.008.1.012.15.012h15.25c.08 0 .148-.007.226-.026 1.423-.337 16.94-3.909 27.467-1.989 5.746 1.049 5.51 2.643 3.964 3.931-.823.684-.54 2.41.526 2.503l18.659 1.623h58.55a1 1 0 011 1v2.702a1 1 0 001 1h34.181c.875 0 1.328-1.045.729-1.683l-1.446-1.544a1 1 0 01.629-1.679l21.022-2.135a1.01 1.01 0 01.233.004l17.426 2.323a.995.995 0 01.187.043l11.053 3.715c.911.307.908 1.596-.005 1.898l-37.266 12.315c-.88.291-.926 1.518-.07 1.873l9.5 3.943c.096.04.186.095.266.163l4.303 3.671c.528.451.447 1.29-.157 1.632l-4.121 2.329c-.809.457-.611 1.674.3 1.852l11.98 2.341a1 1 0 01.808.982v3.866c0 .41-.251.779-.632.93l-10.212 4.045c-.117.046-.242.07-.368.07h-16.086a.994.994 0 01-.48-.123l-5.042-2.762a1 1 0 00-.522-.122l-23.977.993-19.414 3.435c-1.114.197-1.096 1.8.021 1.973l8.045 1.241c1.143.176 1.124 1.83-.024 1.98l-8.478 1.105h-14.358c-.522-.026-12.109-.556-12.109 1.742 0 0 0 4.975-8.828 4.975-7.507 0-12.615-1.457-13.977-1.893a1.056 1.056 0 00-.72.024l-9.422 3.828c-.09.036-.185.06-.282.069l-31.617 2.984a1.015 1.015 0 00-.402.127L33.355 221a.985.985 0 00-.234.185l-4.006 4.275a.999.999 0 01-.73.316H15.702a.972.972 0 00-.228.027l-13.933 3.26c-.191.045-.373.143-.452.323-.285.644-.292 2.364 6.775 3.437 8.51 1.293 26.229 4.149 27.5 4.354.053.009.1.012.153.012h22.56c.32 0 .62.152.808.411l3.806 5.221a1 1 0 00.808.411h56.747c.055 0 .11.004.164.013l12.046 2.001 13.091 3.985a.987.987 0 00.291.044h16.288a1 1 0 01.189.018l20.769 3.992a.99.99 0 00.188.018h15.93a1 1 0 01.807.409l1.613 2.201a1 1 0 00.806.409h29.166c.062 0 .123-.006.184-.017l13.918-2.609c.214-.04.436-.009.631.088l14.99 7.493a.977.977 0 00.326.098l21.89 2.667 23.497 5.854a1 1 0 01.758.971v2.745a1 1 0 00.825.985l12.206 2.168c.134.024.271.02.403-.01l13.833-3.237a.992.992 0 01.597.044l35.921 14.253c.112.045.216.11.305.191l7.352 6.709c.153.14.346.229.552.254l34.979 4.326h20.807c.098 0 .197.015.291.044l16.193 4.929a.99.99 0 00.401.038l23.97-2.657c.054-.005.107-.007.161-.004l19.67.995a.997.997 0 01.196.029l12.919 3.276c.144.036.293.04.438.012l15.137-2.958a.97.97 0 01.178-.019l22.074-.321a1 1 0 00.985-1v-3.386a1 1 0 01.608-.92l9.806-4.184a1 1 0 00.607-.92v-3.061a1 1 0 01.585-.91l8.149-3.718c.063-.029.123-.065.179-.106l7.386-5.457a.998.998 0 01.567-.196l37.098-.993c.051-.002.1-.007.15-.016l18.67-3.342 20.755-3.656a.99.99 0 00.372-.147l16.476-10.719a1 1 0 00-.071-1.718l-16.345-8.811a.98.98 0 00-.485-.121c-2.211.029-18.468.145-32.83-2.354-14.865-2.587-32.786-10.766-34.111-11.377a.924.924 0 00-.17-.059l-37.396-9.375-14.253-5.003a.996.996 0 00-.177-.044l-36.291-5.692-16.533-4.365-28.325-6.301a1.002 1.002 0 01-.574-.365l-8.356-10.801a.999.999 0 00-.659-.38l-43.426-5.804a1 1 0 01-.765-1.432l2.549-5.188a.991.991 0 01.41-.433l6.18-3.448c.108-.06.227-.1.35-.117l8.012-1.108c1.029-.143 1.186-1.566.212-1.928l-6.029-2.245a.993.993 0 00-.349-.063H396.94c-.974 0-1.373-1.251-.579-1.815l10.619-7.542c.039-.027.079-.052.121-.074l14.182-7.302c.063-.033.129-.058.196-.077l5.409-1.465c1.035-.281.962-1.774-.096-1.952l-12.057-2.028a.997.997 0 00-.421.019l-19.193 5.062a1 1 0 01-.425.019l-25.146-4.329-28.305-7.287a.999.999 0 01-.586-.419l-1.708-2.591a1.003 1.003 0 00-.821-.45l-22.423-.326a1 1 0 01-.377-.08l-10.71-4.569a1.023 1.023 0 00-.272-.073l-21.792-2.655a.98.98 0 01-.249-.063l-12.573-5.003a1 1 0 01-.234-1.726l2.563-1.944z" fill="#0F1833" stroke="#2A4390" stroke-miterlimit="10"/><path opacity=".3" d="M532 224V12" stroke="#E3A634" stroke-linejoin="round" stroke-dasharray="4 4"/><circle cx="532" cy="12" r="12" fill="#E3A634"/><path d="M495.458 244.177l35.306-19.916c.794-.447.623-1.637-.264-1.844l-27.215-6.35a.993.993 0 00-.561.031l-141.029 49.948c-.892.315-.887 1.579.007 1.887l52.02 17.971a.994.994 0 00.564.026L463 274l48.017-16.326a1 1 0 00.213-1.792l-15.815-9.988a1 1 0 01.043-1.717z" fill="#E3A634" fill-opacity=".1" stroke="#E3A634" stroke-linejoin="round" stroke-dasharray="4 4"/><path d="M534.046 6.818V17h-1.844V8.613h-.06l-2.381 1.521v-1.69l2.53-1.626h1.755z" fill="#000"/><path opacity=".3" d="M494 244V32" stroke="#E3A634" stroke-linejoin="round" stroke-dasharray="4 4"/><circle cx="494" cy="32" r="12" fill="#E3A634"/><path d="M490.905 37v-1.332l3.535-3.466c.338-.341.619-.644.845-.91a3.36 3.36 0 00.507-.77 1.9 1.9 0 00.169-.795c0-.322-.073-.597-.219-.826a1.456 1.456 0 00-.601-.537 1.946 1.946 0 00-.87-.189c-.335 0-.628.07-.88.21a1.432 1.432 0 00-.587.58 1.868 1.868 0 00-.204.9h-1.755c0-.645.148-1.207.443-1.685a2.987 2.987 0 011.218-1.108c.52-.262 1.117-.393 1.789-.393.683 0 1.283.128 1.8.383.517.255.918.605 1.203 1.049.289.444.433.951.433 1.521 0 .381-.073.756-.219 1.124-.146.368-.403.775-.771 1.223-.364.447-.876.989-1.536 1.625l-1.755 1.785v.07h4.435V37h-6.98z" fill="#000"/><path opacity=".3" d="M512 257V63" stroke="#E3A634" stroke-linejoin="round" stroke-dasharray="4 4"/><circle cx="512" cy="63" r="12" fill="#E3A634"/><path d="M512.559 68.14c-.716 0-1.352-.123-1.909-.369-.554-.245-.991-.586-1.313-1.024a2.66 2.66 0 01-.512-1.516h1.87c.016.275.107.515.273.72.166.203.386.36.661.473.275.113.584.169.925.169.365 0 .688-.063.969-.189.282-.13.503-.308.662-.537.159-.229.237-.492.233-.79a1.37 1.37 0 00-.238-.816 1.601 1.601 0 00-.706-.551c-.305-.133-.673-.2-1.104-.2h-.9v-1.42h.9c.355 0 .665-.061.93-.184.268-.123.479-.295.631-.517a1.33 1.33 0 00.224-.78 1.356 1.356 0 00-.194-.752 1.306 1.306 0 00-.552-.502 1.813 1.813 0 00-.83-.179c-.312 0-.6.057-.865.17a1.58 1.58 0 00-.642.482c-.162.205-.248.45-.258.736h-1.775a2.58 2.58 0 01.492-1.502 3.177 3.177 0 011.273-1.014c.53-.245 1.125-.368 1.785-.368.679 0 1.269.128 1.77.383.503.252.893.591 1.168 1.019.275.427.413.9.413 1.417.003.573-.166 1.054-.507 1.442-.339.387-.783.641-1.333.76v.08c.716.1 1.265.364 1.646.795.384.428.575.96.571 1.596 0 .57-.162 1.08-.487 1.531-.321.448-.765.8-1.332 1.054-.564.256-1.21.383-1.939.383z" fill="#000"/><path opacity=".3" d="M462 274V62" stroke="#E3A634" stroke-linejoin="round" stroke-dasharray="4 4"/><circle cx="462" cy="62" r="12" fill="#E3A634"/><path d="M458.721 65.11v-1.466l4.32-6.826h1.223v2.088h-.746l-2.908 4.609v.08h6.031v1.516h-7.92zm4.857 1.89v-2.337l.02-.656v-7.189h1.74V67h-1.76z" fill="#000"/><path opacity=".3" d="M359 265V53" stroke="#E3A634" stroke-linejoin="round" stroke-dasharray="4 4"/><circle cx="359" cy="53" r="12" fill="#E3A634"/><path d="M356.278 58l4.33-8.571v-.07h-5.026v-1.54h6.935v1.575L358.192 58h-1.914z" fill="#000"/><path opacity=".3" d="M412 284V72" stroke="#E3A634" stroke-linejoin="round" stroke-dasharray="4 4"/><circle cx="412" cy="72" r="12" fill="#E3A634"/><circle cx="412" cy="102" r="12" fill="#E3A634"/><path d="M412.445 77.14c-.663 0-1.257-.125-1.78-.374a3.17 3.17 0 01-1.248-1.034 2.737 2.737 0 01-.487-1.501h1.789c.034.417.214.759.542 1.024.328.262.723.393 1.184.393.361 0 .682-.083.964-.249.282-.166.504-.396.666-.69.163-.296.242-.632.239-1.01a2.037 2.037 0 00-.244-1.024 1.813 1.813 0 00-.681-.701 1.9 1.9 0 00-.994-.259 2.37 2.37 0 00-.9.17 1.84 1.84 0 00-.701.457l-1.665-.274.532-5.25h5.906v1.541h-4.38l-.294 2.7h.06c.189-.222.456-.406.801-.552a2.82 2.82 0 011.133-.224c.617 0 1.167.146 1.651.438.484.288.865.686 1.143 1.193.279.507.418 1.087.418 1.74 0 .673-.156 1.273-.468 1.8a3.304 3.304 0 01-1.287 1.238c-.547.298-1.18.447-1.899.447zm.189 29.999a4.307 4.307 0 01-1.427-.253 3.354 3.354 0 01-1.253-.821c-.371-.381-.666-.886-.885-1.516-.219-.633-.327-1.417-.323-2.352 0-.871.093-1.648.278-2.331.186-.683.453-1.26.801-1.73a3.534 3.534 0 011.257-1.084 3.633 3.633 0 011.656-.373c.64 0 1.206.126 1.7.378a3.2 3.2 0 011.203 1.034c.305.434.494.925.567 1.472h-1.815a1.644 1.644 0 00-.571-.935c-.285-.236-.647-.353-1.084-.353-.706 0-1.25.306-1.631.92-.378.613-.568 1.455-.571 2.525h.069c.163-.291.373-.542.632-.751a2.9 2.9 0 01.875-.482 3.092 3.092 0 011.039-.174c.596 0 1.131.143 1.605.428.478.285.856.678 1.134 1.178.278.497.416 1.067.413 1.71.003.67-.15 1.271-.458 1.805a3.32 3.32 0 01-1.287 1.253c-.551.305-1.192.456-1.924.452zm-.01-1.491c.361 0 .684-.088.969-.264a1.9 1.9 0 00.676-.711c.166-.298.247-.633.244-1.004a1.973 1.973 0 00-.239-.989 1.806 1.806 0 00-1.626-.96 1.843 1.843 0 00-1.357.582 2.008 2.008 0 00-.308 2.361 1.9 1.9 0 00.671.716c.285.179.608.269.97.269z" fill="#000"/></svg>