<svg width="697" height="316" fill="none" xmlns="http://www.w3.org/2000/svg"><path opacity=".3" d="M697 232.807C697 250.605 673.025 268 673.025 268l-226.086-47.666-58.436-24.15-9.58-18.296L195 125.831c41.802-1.464 87.884-2.831 129.274-2.831 48.77 0 80.501 12.363 193.495 35.442 74.117 15.139 47.028 14.635 79.662 28.26C663.339 214.219 697 216.237 697 232.807z" fill="#2A4390"/><path d="M272.062 131.726c.708-.538.415-1.663-.465-1.787l-25.47-3.593a1.033 1.033 0 00-.167-.01l-37.404 1.021h-35.295l-56.157-2.354c-.05-.002-.101 0-.151.005l-26.183 2.878c-.888.098-1.212 1.223-.511 1.778l2.83 2.243c.697.551.382 1.669-.5 1.776l-36.216 4.413h-20.62c-.218 0-.43.072-.605.204l-3.706 2.819c-.788.6-.33 1.867.659 1.81 7.902-.454 27.124-1.404 25.378.2-2.193 2.014-11.022 5.706-28.679 6.043-10.262.195-17.903 1.071-22.503 1.771-1.087.165-1.055 1.524.031 1.69l8.077 1.229c.05.008.1.012.15.012h15.25c.08 0 .148-.007.226-.026 1.423-.337 16.94-3.909 27.467-1.989 5.746 1.049 5.51 2.643 3.964 3.931-.823.684-.54 2.41.526 2.503l18.659 1.623h58.55a1 1 0 011 1v2.702a1 1 0 001 1h34.181c.875 0 1.328-1.045.729-1.683l-1.446-1.544a1 1 0 01.629-1.679l21.022-2.135a1.01 1.01 0 01.233.004l17.426 2.323a.995.995 0 01.187.043l11.053 3.715c.911.307.908 1.596-.005 1.898l-37.266 12.315c-.88.291-.926 1.518-.07 1.873l9.5 3.943c.096.04.186.095.266.163l4.303 3.671c.528.451.447 1.29-.157 1.632l-4.121 2.329c-.809.457-.611 1.674.3 1.852l11.98 2.341a1 1 0 01.808.982v3.866c0 .41-.251.779-.632.93l-10.212 4.045c-.117.046-.242.07-.368.07h-16.086a.994.994 0 01-.48-.123l-5.042-2.762a1 1 0 00-.522-.122l-23.977.993-19.414 3.435c-1.114.197-1.096 1.8.021 1.973l8.045 1.241c1.143.176 1.124 1.83-.024 1.98l-8.478 1.105h-14.358c-.522-.026-12.109-.556-12.109 1.742 0 0 0 4.975-8.828 4.975-7.507 0-12.615-1.457-13.977-1.893a1.056 1.056 0 00-.72.024l-9.422 3.828c-.09.036-.185.06-.282.069l-31.617 2.984a1.015 1.015 0 00-.402.127L33.355 230a.985.985 0 00-.234.185l-4.006 4.275a.999.999 0 01-.73.316H15.702a.972.972 0 00-.228.027l-13.933 3.26c-.191.045-.373.143-.452.323-.285.644-.292 2.364 6.775 3.437 8.51 1.293 26.229 4.149 27.5 4.354.053.009.1.012.153.012h22.56c.32 0 .62.152.808.411l3.806 5.221a1 1 0 00.808.411h56.747c.055 0 .11.004.164.013l12.046 2.001 13.091 3.985a.987.987 0 00.291.044h16.288a1 1 0 01.189.018l20.769 3.992a.99.99 0 00.188.018h15.93a1 1 0 01.807.409l1.613 2.201a1 1 0 00.806.409h29.166c.062 0 .123-.006.184-.017l13.918-2.609c.214-.04.436-.009.631.088l14.99 7.493a.977.977 0 00.326.098l21.89 2.667 23.497 5.854a1 1 0 01.758.971v2.745a1 1 0 00.825.985l12.206 2.168c.133.024.271.02.403-.01l13.833-3.237a.992.992 0 01.597.044l35.921 14.253c.112.045.216.11.305.191l7.352 6.709c.153.14.346.229.552.254l34.979 4.326h20.807c.098 0 .197.015.291.044l16.193 4.929a.99.99 0 00.401.038l23.97-2.657c.054-.005.107-.007.161-.004l19.67.995a.997.997 0 01.196.029l12.919 3.276c.144.036.293.04.438.012l15.137-2.958a.97.97 0 01.178-.019l22.074-.321a1 1 0 00.985-1v-3.386a1 1 0 01.608-.92l9.806-4.184a1 1 0 00.607-.92v-3.061a1 1 0 01.585-.91l8.149-3.718c.063-.029.123-.065.179-.106l7.386-5.457a.998.998 0 01.567-.196l37.098-.993c.051-.002.1-.007.15-.016l18.67-3.342 20.755-3.656a.99.99 0 00.372-.147l16.476-10.719a1 1 0 00-.071-1.718l-16.345-8.811a.98.98 0 00-.485-.121c-2.211.029-18.468.145-32.83-2.354-14.865-2.587-32.786-10.766-34.111-11.377a.924.924 0 00-.17-.059l-37.396-9.375-14.253-5.003a.996.996 0 00-.177-.044l-36.291-5.692-16.533-4.365-28.325-6.301a1.002 1.002 0 01-.574-.365l-8.356-10.801a.999.999 0 00-.659-.38l-43.426-5.804a1 1 0 01-.765-1.432l2.549-5.188a.991.991 0 01.41-.433l6.18-3.448c.108-.06.227-.1.35-.117l8.012-1.108c1.029-.143 1.186-1.566.212-1.928l-6.029-2.245a.993.993 0 00-.349-.063H396.94c-.974 0-1.373-1.251-.579-1.815l10.619-7.542c.039-.027.079-.052.121-.074l14.182-7.302c.063-.033.129-.058.196-.077l5.409-1.465c1.035-.281.962-1.774-.096-1.952l-12.057-2.028a.992.992 0 00-.42.019l-19.194 5.062a1 1 0 01-.425.019l-25.146-4.329-28.305-7.287a.999.999 0 01-.586-.419l-1.708-2.591a1.003 1.003 0 00-.821-.45l-22.423-.326a1 1 0 01-.377-.08l-10.71-4.569a1.023 1.023 0 00-.272-.073l-21.792-2.655a.98.98 0 01-.249-.063l-12.573-5.003a1 1 0 01-.234-1.726l2.563-1.944z" fill="#0F1833" stroke="#2A4390" stroke-miterlimit="10"/><path opacity=".4" d="M490 71V11" stroke="#E3A634" stroke-linejoin="round" stroke-dasharray="4 4"/><circle cx="490" cy="12" r="12" fill="#E3A634"/><path d="M491.046 6.818V17h-1.844V8.613h-.06l-2.381 1.521v-1.69l2.53-1.626h1.755z" fill="#000"/><path opacity=".4" d="M526 94V26" stroke="#E3A634" stroke-linejoin="round" stroke-dasharray="4 4"/><circle cx="526" cy="27" r="12" fill="#E3A634"/><path d="M522.905 32v-1.332l3.535-3.466c.338-.341.619-.644.845-.91a3.36 3.36 0 00.507-.77 1.9 1.9 0 00.169-.795c0-.322-.073-.597-.219-.826a1.456 1.456 0 00-.601-.537 1.946 1.946 0 00-.87-.189c-.335 0-.628.07-.88.21a1.432 1.432 0 00-.587.58 1.868 1.868 0 00-.204.9h-1.755c0-.645.148-1.207.443-1.685a2.987 2.987 0 011.218-1.108c.52-.262 1.117-.393 1.789-.393.683 0 1.283.128 1.8.383.517.255.918.605 1.203 1.049.289.444.433.951.433 1.521 0 .381-.073.756-.219 1.124-.146.368-.403.775-.771 1.223-.364.447-.876.989-1.536 1.625l-1.755 1.785v.07h4.435V32h-6.98z" fill="#000"/><path opacity=".4" d="M571 97V39" stroke="#E3A634" stroke-linejoin="round" stroke-dasharray="4 4"/><circle cx="571" cy="40" r="12" fill="#E3A634"/><path d="M571.559 45.14c-.716 0-1.352-.123-1.909-.369-.554-.245-.991-.586-1.313-1.024a2.66 2.66 0 01-.512-1.516h1.87c.016.275.107.515.273.72.166.203.386.36.661.473.275.113.584.169.925.169.365 0 .688-.063.969-.189.282-.13.503-.308.662-.537.159-.228.237-.492.233-.79a1.37 1.37 0 00-.238-.816 1.601 1.601 0 00-.706-.552c-.305-.132-.673-.198-1.104-.198h-.9v-1.422h.9c.355 0 .665-.061.93-.184.268-.123.479-.295.631-.517a1.33 1.33 0 00.224-.78 1.356 1.356 0 00-.194-.752 1.306 1.306 0 00-.552-.502 1.813 1.813 0 00-.83-.179c-.312 0-.6.057-.865.17a1.58 1.58 0 00-.642.482c-.162.205-.248.45-.258.736h-1.775a2.58 2.58 0 01.492-1.502 3.177 3.177 0 011.273-1.014c.53-.245 1.125-.368 1.785-.368.679 0 1.269.128 1.77.383.503.252.893.591 1.168 1.019.275.427.413.9.413 1.417.003.573-.166 1.054-.507 1.442-.339.387-.783.641-1.333.76v.08c.716.1 1.265.364 1.646.795.384.428.575.96.571 1.596 0 .57-.162 1.08-.487 1.531-.321.448-.765.8-1.332 1.054-.564.256-1.21.383-1.939.383z" fill="#000"/><path opacity=".4" d="M589 257V65" stroke="#E3A634" stroke-linejoin="round" stroke-dasharray="4 4"/><circle cx="589" cy="66" r="12" fill="#E3A634"/><path d="M585.721 69.11v-1.466l4.32-6.826h1.223v2.088h-.746l-2.908 4.609v.08h6.031v1.516h-7.92zm4.857 1.89v-2.337l.02-.656v-7.189h1.74V71h-1.76z" fill="#000"/><path opacity=".4" d="M571 257V88" stroke="#E3A634" stroke-linejoin="round" stroke-dasharray="4 4"/><circle cx="571" cy="89" r="12" fill="#E3A634"/><path d="M571.445 94.14c-.663 0-1.257-.125-1.78-.374a3.17 3.17 0 01-1.248-1.034 2.737 2.737 0 01-.487-1.501h1.789c.034.417.214.759.542 1.024.328.262.723.393 1.184.393.361 0 .682-.083.964-.249.282-.166.504-.396.666-.69.163-.296.242-.632.239-1.01a2.037 2.037 0 00-.244-1.024 1.813 1.813 0 00-.681-.701 1.9 1.9 0 00-.994-.259 2.37 2.37 0 00-.9.17 1.84 1.84 0 00-.701.457l-1.665-.274.532-5.25h5.906v1.541h-4.38l-.294 2.7h.06c.189-.222.456-.406.801-.552a2.82 2.82 0 011.133-.224c.617 0 1.167.146 1.651.438.484.288.865.686 1.143 1.193.279.507.418 1.087.418 1.74 0 .673-.156 1.273-.468 1.8a3.304 3.304 0 01-1.287 1.238c-.547.298-1.18.447-1.899.447z" fill="#000"/><path opacity=".4" d="M613 276V80" stroke="#E3A634" stroke-linejoin="round" stroke-dasharray="4 4"/><circle cx="613" cy="81" r="12" fill="#E3A634"/><path d="M613.634 86.14a4.298 4.298 0 01-1.427-.254 3.355 3.355 0 01-1.253-.82c-.371-.382-.666-.887-.885-1.517-.219-.633-.327-1.417-.323-2.352 0-.871.093-1.648.278-2.331.186-.683.453-1.26.801-1.73a3.534 3.534 0 011.257-1.084 3.633 3.633 0 011.656-.373c.64 0 1.206.126 1.7.378a3.2 3.2 0 011.203 1.034c.305.434.494.925.567 1.472h-1.815a1.644 1.644 0 00-.571-.935c-.285-.236-.647-.353-1.084-.353-.706 0-1.25.306-1.631.92-.378.613-.568 1.455-.571 2.525h.069a2.55 2.55 0 01.632-.75c.258-.21.55-.37.875-.483a3.092 3.092 0 011.039-.174c.596 0 1.131.143 1.605.428.478.285.856.678 1.134 1.178.278.497.416 1.067.413 1.71.003.67-.15 1.271-.458 1.805a3.32 3.32 0 01-1.287 1.253c-.551.305-1.192.456-1.924.452zm-.01-1.492c.361 0 .684-.088.969-.264a1.91 1.91 0 00.676-.71 2 2 0 00.244-1.005 1.976 1.976 0 00-.239-.99 1.814 1.814 0 00-.661-.7 1.811 1.811 0 00-.965-.259 1.83 1.83 0 00-.75.154 1.875 1.875 0 00-.607.428 2.002 2.002 0 00-.557 1.382c.004.355.087.681.249.98.162.298.386.536.671.715.285.18.608.269.97.269z" fill="#000"/><path opacity=".4" d="M536 255V45" stroke="#E3A634" stroke-linejoin="round" stroke-dasharray="4 4"/><circle cx="536" cy="56" r="12" fill="#E3A634"/><path d="M533.278 61l4.33-8.571v-.07h-5.026v-1.54h6.935v1.575L535.192 61h-1.914z" fill="#000"/><path opacity=".4" d="M490 112V73" stroke="#E3A634" stroke-linejoin="round" stroke-dasharray="4 4"/><circle cx="490" cy="74" r="12" fill="#E3A634"/><path d="M490.524 79.14c-.739 0-1.395-.125-1.969-.374-.57-.248-1.017-.588-1.342-1.019a2.392 2.392 0 01-.477-1.476c-.004-.428.089-.82.278-1.179.189-.358.444-.656.766-.895a2.47 2.47 0 011.084-.462v-.07a2.154 2.154 0 01-1.273-.8 2.303 2.303 0 01-.477-1.457 2.313 2.313 0 01.437-1.402c.295-.41.699-.734 1.213-.97.514-.238 1.101-.357 1.76-.357.653 0 1.235.12 1.745.358.514.235.918.558 1.213.97.299.41.448.878.448 1.401 0 .55-.164 1.036-.492 1.457a2.152 2.152 0 01-1.258.8v.07c.397.066.755.22 1.074.462.321.24.576.537.765.895.192.358.289.751.289 1.179a2.4 2.4 0 01-.488 1.476c-.324.431-.772.77-1.342 1.02-.567.248-1.218.372-1.954.372zm0-1.423c.381 0 .713-.064.994-.194a1.55 1.55 0 00.657-.556 1.51 1.51 0 00.238-.826 1.539 1.539 0 00-.253-.86 1.67 1.67 0 00-.671-.591 2.111 2.111 0 00-.965-.214 2.15 2.15 0 00-.974.214c-.285.142-.511.34-.676.591a1.506 1.506 0 00-.239.86 1.45 1.45 0 00.229.826c.155.235.374.419.656.552.285.132.62.198 1.004.198zm0-4.638c.312 0 .587-.063.825-.19a1.437 1.437 0 00.786-1.307 1.45 1.45 0 00-.209-.765 1.348 1.348 0 00-.567-.512 1.822 1.822 0 00-.835-.184c-.321 0-.605.061-.85.184-.242.119-.431.29-.567.512a1.424 1.424 0 00-.194.765c-.003.295.063.556.199.78.139.223.33.399.572.528.245.126.525.189.84.189z" fill="#000"/><path opacity=".4" d="M514 279V116" stroke="#E3A634" stroke-linejoin="round" stroke-dasharray="4 4"/><circle cx="514" cy="102" r="12" fill="#E3A634"/><path d="M511.046 96.818V107h-1.844v-8.387h-.06l-2.381 1.521v-1.69l2.53-1.626h1.755zm6.727 0V107h-1.845v-8.387h-.059l-2.382 1.521v-1.69l2.531-1.626h1.755z" fill="#000"/><path opacity=".4" d="M417 247V92" stroke="#E3A634" stroke-linejoin="round" stroke-dasharray="4 4"/><circle cx="417" cy="78" r="12" fill="#E3A634"/><path d="M414.046 72.818V83h-1.844v-8.387h-.06l-2.381 1.521v-1.69l2.53-1.626h1.755zM416.631 83v-1.332l3.535-3.466c.338-.341.62-.644.845-.91.226-.264.395-.521.507-.77a1.9 1.9 0 00.17-.795c0-.322-.073-.597-.219-.826a1.459 1.459 0 00-.602-.537 1.94 1.94 0 00-.87-.189c-.335 0-.628.07-.88.21a1.43 1.43 0 00-.586.58 1.868 1.868 0 00-.204.9h-1.755c0-.645.147-1.207.442-1.685a2.987 2.987 0 011.218-1.108c.521-.262 1.117-.393 1.79-.393.683 0 1.283.128 1.8.383.517.255.918.605 1.203 1.049.288.444.432.951.432 1.521 0 .381-.073.756-.218 1.124-.146.368-.403.775-.771 1.223-.365.447-.877.989-1.536 1.625l-1.755 1.785v.07h4.435V83h-6.981z" fill="#000"/><path opacity=".4" d="M490 261V121" stroke="#E3A634" stroke-linejoin="round" stroke-dasharray="4 4"/><circle cx="490" cy="107" r="12" fill="#E3A634"/><path d="M487.046 101.818V112h-1.844v-8.387h-.06l-2.381 1.521v-1.69l2.53-1.626h1.755zm6.24 10.321c-.716 0-1.353-.122-1.91-.368-.553-.245-.991-.586-1.312-1.024a2.65 2.65 0 01-.512-1.516h1.869c.017.275.108.515.274.721.165.202.386.359.661.472.275.113.583.169.925.169.364 0 .687-.063.969-.189.282-.129.502-.308.661-.537.159-.229.237-.492.234-.79a1.373 1.373 0 00-.239-.816 1.587 1.587 0 00-.706-.551c-.305-.133-.673-.199-1.103-.199h-.9v-1.422h.9c.354 0 .664-.062.929-.184.269-.123.479-.295.632-.517.152-.226.227-.486.223-.781a1.353 1.353 0 00-.193-.75 1.32 1.32 0 00-.552-.503 1.82 1.82 0 00-.831-.179c-.311 0-.6.057-.865.169a1.574 1.574 0 00-.641.483c-.162.205-.249.45-.259.735h-1.774a2.58 2.58 0 01.492-1.501 3.173 3.173 0 011.273-1.014c.53-.245 1.125-.368 1.784-.368.68 0 1.27.128 1.77.383.504.252.893.591 1.169 1.019.275.428.412.9.412 1.417.004.573-.166 1.054-.507 1.442-.338.387-.782.641-1.332.76v.08c.716.099 1.264.364 1.645.795.385.428.575.96.572 1.596a2.55 2.55 0 01-.487 1.531c-.322.448-.766.799-1.333 1.054-.563.256-1.209.383-1.938.383z" fill="#000"/><circle cx="546" cy="138" r="12" fill="#E3A634"/><path d="M543.046 132.818V143h-1.844v-8.387h-.06l-2.381 1.521v-1.69l2.53-1.626h1.755zm6.349 10.376c-.819 0-1.521-.207-2.108-.622-.583-.417-1.033-1.019-1.347-1.804-.312-.789-.468-1.739-.468-2.849.004-1.11.161-2.055.473-2.834.314-.782.764-1.379 1.347-1.79.587-.411 1.288-.616 2.103-.616.815 0 1.516.205 2.103.616.587.411 1.036 1.008 1.347 1.79.315.782.472 1.727.472 2.834 0 1.114-.157 2.065-.472 2.854-.311.785-.76 1.385-1.347 1.799-.583.415-1.284.622-2.103.622zm0-1.556c.636 0 1.138-.313 1.506-.94.371-.63.557-1.556.557-2.779 0-.809-.084-1.488-.253-2.038-.169-.551-.408-.965-.716-1.243a1.568 1.568 0 00-1.094-.423c-.633 0-1.134.315-1.502.945-.367.626-.553 1.546-.556 2.759-.004.812.078 1.495.243 2.048.169.554.408.971.716 1.253.308.279.675.418 1.099.418z" fill="#000"/><path opacity=".4" d="M546 276V103" stroke="#E3A634" stroke-linejoin="round" stroke-dasharray="4 4"/><circle cx="546" cy="104" r="12" fill="#E3A634"/><path d="M546.44 98.679a4.2 4.2 0 011.422.258c.464.166.881.438 1.252.816.372.374.667.876.885 1.506.219.63.328 1.409.328 2.337.004.875-.089 1.657-.278 2.346-.186.687-.452 1.267-.8 1.741a3.538 3.538 0 01-1.258 1.083 3.609 3.609 0 01-1.656.373c-.643 0-1.213-.126-1.71-.378a3.208 3.208 0 01-1.76-2.535h1.815c.092.404.281.726.566.964.289.236.652.353 1.089.353.706 0 1.25-.306 1.631-.919.381-.614.572-1.465.572-2.556h-.07a2.61 2.61 0 01-.631.756 2.881 2.881 0 01-.88.482c-.325.113-.67.169-1.034.169a3.08 3.08 0 01-1.611-.427 3.13 3.13 0 01-1.129-1.174c-.275-.497-.414-1.065-.417-1.705 0-.663.152-1.258.457-1.785.308-.53.737-.948 1.288-1.253.55-.308 1.193-.459 1.929-.452zm.005 1.491c-.358 0-.682.088-.97.264-.285.172-.51.408-.676.706a2.022 2.022 0 00-.244.989c.004.362.085.69.244.985.162.295.383.528.661.701.282.172.603.258.965.258a1.858 1.858 0 001.357-.582c.176-.185.312-.396.408-.631.099-.235.147-.484.144-.746 0-.348-.083-.669-.249-.964a1.916 1.916 0 00-.671-.711 1.77 1.77 0 00-.969-.269z" fill="#000"/><path d="M534.739 230.8l-44.338-6.764a1.002 1.002 0 00-.464.039l-73.931 24.405c-.928.307-.911 1.625.025 1.907l97.991 29.57a.996.996 0 00.291.043l26.296-.044c1.144-.002 1.389-1.611.298-1.954l-50.375-15.83c-1.024-.321-.89-1.811.175-1.946l45.336-5.725a1 1 0 01.438.042l67.977 22.386c.116.038.238.054.36.049l5.209-.245c1.091-.051 1.322-1.564.296-1.938l-38.136-13.904c-1.046-.381-.78-1.93.334-1.939l17.018-.149a1 1 0 00.571-.186l9.734-6.937a1 1 0 00-.29-1.771l-30.779-9.345-34.036-9.764z" fill="#E3A634" fill-opacity=".1" stroke="#E3A634" stroke-linejoin="round" stroke-dasharray="4 4"/></svg>