<?xml version="1.0" encoding="utf-8"?><svg viewBox="0 0 31 32" xmlns="http://www.w3.org/2000/svg" xmlns:xlink="http://www.w3.org/1999/xlink"><style>:root>svg{display:none}:root>svg:target{display:block}</style><svg fill="none" viewBox="0 0 8 31" id="icon-arrow-bottom" xmlns="http://www.w3.org/2000/svg"><path d="M3.646 30.354a.5.5 0 00.708 0l3.182-3.182a.5.5 0 00-.708-.707L4 29.293l-2.828-2.828a.5.5 0 10-.708.707l3.182 3.182zM3.5 0v30h1V0h-1z" fill="currentColor"/></svg><svg fill="none" viewBox="0 0 31 8" id="icon-arrow-right" xmlns="http://www.w3.org/2000/svg"><path d="M30.354 4.354a.5.5 0 000-.708L27.172.464a.5.5 0 10-.707.708L29.293 4l-2.828 2.828a.5.5 0 10.707.708l3.182-3.182zM0 4.5h30v-1H0v1z" fill="currentColor"/></svg><svg fill="none" viewBox="0 0 8 31" id="icon-arrow-top" xmlns="http://www.w3.org/2000/svg"><path d="M4.354.646a.5.5 0 00-.708 0L.464 3.828a.5.5 0 00.708.708L4 1.707l2.828 2.829a.5.5 0 10.708-.708L4.354.646zM4.5 31V1h-1v30h1z" fill="currentColor"/></svg><svg fill="none" viewBox="0 0 23 32" id="icon-helicopter" xmlns="http://www.w3.org/2000/svg"><path fill-rule="evenodd" clip-rule="evenodd" d="M13.183 16.543c.347-.234.675-.533.978-.89l7.164 7.164a.816.816 0 101.154-1.154l-7.399-7.4c.782-1.513 1.258-3.51 1.258-5.7 0-.227-.005-.453-.015-.676l6.156-6.156A.816.816 0 0021.325.577l-5.246 5.246C15.417 2.438 13.563 0 11.38 0 9.19 0 7.33 2.455 6.675 5.859L1.393.577A.816.816 0 10.24 1.731l6.197 6.197c-.009.21-.013.422-.013.635 0 2.176.47 4.162 1.243 5.673L.24 21.663a.816.816 0 001.154 1.154l7.187-7.186c.309.366.643.673.997.912v10.5L4.62 30.196V32l4.957-2.253h3.606L18.141 32v-1.803l-4.958-3.155V16.543z" fill="#E3A634"/></svg><svg fill="none" viewBox="0 0 21 21" id="icon-instagram" xmlns="http://www.w3.org/2000/svg"><path fill-rule="evenodd" clip-rule="evenodd" d="M6.171.063C7.291.011 7.648 0 10.5 0c2.852 0 3.21.012 4.328.063 1.119.05 1.882.23 2.55.488.7.264 1.335.677 1.86 1.212a5.129 5.129 0 011.21 1.859c.26.668.438 1.431.489 2.548.051 1.122.063 1.479.063 4.33 0 2.852-.012 3.21-.063 4.329-.05 1.117-.23 1.88-.489 2.549a5.15 5.15 0 01-1.21 1.86 5.149 5.149 0 01-1.86 1.21c-.668.26-1.431.438-2.548.489-1.12.051-1.478.063-4.33.063-2.852 0-3.21-.012-4.329-.063-1.117-.05-1.88-.23-2.549-.489a5.152 5.152 0 01-1.86-1.21 5.147 5.147 0 01-1.211-1.86C.292 16.71.115 15.947.063 14.83.011 13.708 0 13.35 0 10.5c0-2.852.012-3.21.063-4.328.05-1.119.23-1.882.488-2.55a5.15 5.15 0 011.212-1.86A5.147 5.147 0 013.622.551C4.29.292 5.053.115 6.17.063h.001zm8.572 1.89c-1.107-.05-1.44-.061-4.243-.061-2.803 0-3.136.01-4.243.061-1.024.047-1.58.218-1.95.362-.49.19-.84.417-1.208.784a3.257 3.257 0 00-.784 1.208c-.144.37-.315.926-.362 1.95-.05 1.107-.061 1.44-.061 4.243 0 2.803.01 3.136.061 4.243.047 1.024.218 1.58.362 1.95.168.455.436.869.784 1.208a3.26 3.26 0 001.208.784c.37.144.926.315 1.95.362 1.107.05 1.439.061 4.243.061 2.805 0 3.136-.01 4.243-.061 1.024-.047 1.58-.218 1.95-.362.49-.19.84-.417 1.208-.784a3.26 3.26 0 00.784-1.208c.144-.37.315-.926.362-1.95.05-1.107.061-1.44.061-4.243 0-2.803-.01-3.136-.061-4.243-.047-1.024-.218-1.58-.362-1.95a3.26 3.26 0 00-.784-1.208 3.258 3.258 0 00-1.208-.784c-.37-.144-.926-.315-1.95-.362zM9.159 13.737a3.503 3.503 0 102.521-6.535 3.503 3.503 0 00-2.521 6.535zM6.684 6.684a5.397 5.397 0 117.632 7.632 5.397 5.397 0 01-7.632-7.632zm10.41-.777a1.277 1.277 0 10-1.752-1.858 1.277 1.277 0 001.752 1.858z" fill="currentColor"/></svg><svg fill="none" viewBox="0 0 24 24" id="icon-phone-call" xmlns="http://www.w3.org/2000/svg"><path d="M22 12A10.002 10.002 0 0012 2v2a8.003 8.003 0 017.391 4.938A8 8 0 0120 12h2zM2 10V5a1 1 0 011-1h5a1 1 0 011 1v4a1 1 0 01-1 1H6a8 8 0 008 8v-2a1 1 0 011-1h4a1 1 0 011 1v5a1 1 0 01-1 1h-5C7.373 22 2 16.627 2 10z" fill="#18213B"/><path d="M17.543 9.704c.302.728.457 1.508.457 2.296h-1.8A4.199 4.199 0 0012 7.8V6a6 6 0 015.543 3.704z" fill="#18213B"/></svg><svg fill="none" viewBox="0 0 20 17" id="icon-telegram" xmlns="http://www.w3.org/2000/svg"><path fill-rule="evenodd" clip-rule="evenodd" d="M1.375 7.135c5.369-2.339 8.949-3.88 10.74-4.626C17.229.382 18.292.012 18.985 0c.152-.003.493.035.713.214.186.151.238.356.262.499.025.143.055.47.031.725-.277 2.912-1.476 9.979-2.086 13.24-.259 1.38-.767 1.843-1.259 1.888-1.07.099-1.882-.706-2.917-1.385-1.621-1.063-2.537-1.724-4.11-2.761-1.818-1.198-.64-1.857.396-2.933.272-.282 4.984-4.568 5.075-4.957.011-.048.022-.23-.086-.325-.107-.096-.266-.063-.381-.037-.163.037-2.752 1.748-7.768 5.134-.735.505-1.4.75-1.997.738-.658-.014-1.923-.372-2.863-.677-1.153-.375-2.07-.574-1.99-1.21.041-.332.498-.671 1.37-1.018z" fill="currentColor"/></svg><svg fill="none" viewBox="0 0 21 13" id="icon-vk" xmlns="http://www.w3.org/2000/svg"><path d="M11.438 12.97C4.263 12.97.17 8.103 0 0h3.594c.118 5.946 2.768 8.465 4.866 8.985V0h3.384v5.129C13.918 4.908 16.095 2.57 16.83 0h3.384c-.564 3.168-2.925 5.505-4.604 6.466 1.679.779 4.368 2.817 5.391 6.505h-3.725c-.8-2.467-2.794-4.376-5.43-4.636v4.636h-.407z" fill="currentColor"/></svg></svg>